<svg xmlns="http://www.w3.org/2000/svg" xmlns:xlink="http://www.w3.org/1999/xlink" contentStyleType="text/css" data-diagram-type="DESCRIPTION" height="1312px" preserveAspectRatio="none" style="width:1472px;height:1312px;background:#FFFFFF;" version="1.1" viewBox="0 0 1472 1312" width="1472px" zoomAndPan="magnify"><defs/><g><!--cluster Frontend Layer--><g class="cluster" data-entity="Frontend Layer" data-source-line="3" data-uid="ent0002" id="cluster_Frontend Layer"><path d="M385.38,6 L507.3761,6 A3.75,3.75 0 0 1 509.8761,8.5 L516.8761,28.2969 L795.38,28.2969 A2.5,2.5 0 0 1 797.88,30.7969 L797.88,633.36 A2.5,2.5 0 0 1 795.38,635.86 L385.38,635.86 A2.5,2.5 0 0 1 382.88,633.36 L382.88,8.5 A2.5,2.5 0 0 1 385.38,6" fill="none" style="stroke:#000000;stroke-width:1.5;"/><line style="stroke:#000000;stroke-width:1.5;" x1="382.88" x2="516.8761" y1="28.2969" y2="28.2969"/><text fill="#000000" font-family="sans-serif" font-size="14" font-weight="bold" lengthAdjust="spacing" textLength="120.9961" x="386.88" y="20.9951">Frontend Layer</text></g><!--cluster Backend Layer--><g class="cluster" data-entity="Backend Layer" data-source-line="12" data-uid="ent0009" id="cluster_Backend Layer"><path d="M296.38,684.86 L413.3585,684.86 A3.75,3.75 0 0 1 415.8585,687.36 L422.8585,707.1569 L1179.38,707.1569 A2.5,2.5 0 0 1 1181.88,709.6569 L1181.88,886.95 A2.5,2.5 0 0 1 1179.38,889.45 L296.38,889.45 A2.5,2.5 0 0 1 293.88,886.95 L293.88,687.36 A2.5,2.5 0 0 1 296.38,684.86" fill="none" style="stroke:#000000;stroke-width:1.5;"/><line style="stroke:#000000;stroke-width:1.5;" x1="293.88" x2="422.8585" y1="707.1569" y2="707.1569"/><text fill="#000000" font-family="sans-serif" font-size="14" font-weight="bold" lengthAdjust="spacing" textLength="115.9785" x="297.88" y="699.8551">Backend Layer</text></g><!--cluster AI Processing--><g class="cluster" data-entity="AI Processing" data-source-line="21" data-uid="ent0016" id="cluster_AI Processing"><path d="M1123.38,938.45 L1231.3282,938.45 A3.75,3.75 0 0 1 1233.8282,940.95 L1240.8282,960.7469 L1308.38,960.7469 A2.5,2.5 0 0 1 1310.88,963.2469 L1310.88,1156.54 A2.5,2.5 0 0 1 1308.38,1159.04 L1123.38,1159.04 A2.5,2.5 0 0 1 1120.88,1156.54 L1120.88,940.95 A2.5,2.5 0 0 1 1123.38,938.45" fill="none" style="stroke:#000000;stroke-width:1.5;"/><line style="stroke:#000000;stroke-width:1.5;" x1="1120.88" x2="1240.8282" y1="960.7469" y2="960.7469"/><text fill="#000000" font-family="sans-serif" font-size="14" font-weight="bold" lengthAdjust="spacing" textLength="106.9482" x="1124.88" y="953.4451">AI Processing</text></g><!--cluster Supabase Services--><g class="cluster" data-entity="Supabase Services" data-source-line="26" data-uid="ent0019" id="cluster_Supabase Services"><path d="M284.38,938.45 L433.6036,938.45 A3.75,3.75 0 0 1 436.1036,940.95 L443.1036,960.7469 L795.38,960.7469 A2.5,2.5 0 0 1 797.88,963.2469 L797.88,1156.54 A2.5,2.5 0 0 1 795.38,1159.04 L284.38,1159.04 A2.5,2.5 0 0 1 281.88,1156.54 L281.88,940.95 A2.5,2.5 0 0 1 284.38,938.45" fill="none" style="stroke:#000000;stroke-width:1.5;"/><line style="stroke:#000000;stroke-width:1.5;" x1="281.88" x2="443.1036" y1="960.7469" y2="960.7469"/><text fill="#000000" font-family="sans-serif" font-size="14" font-weight="bold" lengthAdjust="spacing" textLength="148.2236" x="285.88" y="953.4451">Supabase Services</text></g><!--cluster External--><g class="cluster" data-entity="External" data-source-line="33" data-uid="ent0024" id="cluster_External"><path d="M1135.38,1208.04 L1202.2784,1208.04 A3.75,3.75 0 0 1 1204.7784,1210.54 L1211.7784,1230.3369 L1296.38,1230.3369 A2.5,2.5 0 0 1 1298.88,1232.8369 L1298.88,1302.84 A2.5,2.5 0 0 1 1296.38,1305.34 L1135.38,1305.34 A2.5,2.5 0 0 1 1132.88,1302.84 L1132.88,1210.54 A2.5,2.5 0 0 1 1135.38,1208.04" fill="none" style="stroke:#000000;stroke-width:1.5;"/><line style="stroke:#000000;stroke-width:1.5;" x1="1132.88" x2="1211.7784" y1="1230.3369" y2="1230.3369"/><text fill="#000000" font-family="sans-serif" font-size="14" font-weight="bold" lengthAdjust="spacing" textLength="65.8984" x="1136.88" y="1223.0351">External</text></g><!--entity Frontend--><g class="entity" data-entity="Frontend" data-source-line="4" data-uid="ent0003" id="entity_Frontend"><rect fill="#F1F1F1" height="46.2969" rx="2.5" ry="2.5" style="stroke:#181818;stroke-width:0.5;" width="187.9639" x="593.9" y="41"/><rect fill="#F1F1F1" height="10" style="stroke:#181818;stroke-width:0.5;" width="15" x="761.8639" y="46"/><rect fill="#F1F1F1" height="2" style="stroke:#181818;stroke-width:0.5;" width="4" x="759.8639" y="48"/><rect fill="#F1F1F1" height="2" style="stroke:#181818;stroke-width:0.5;" width="4" x="759.8639" y="52"/><text fill="#000000" font-family="sans-serif" font-size="14" lengthAdjust="spacing" textLength="147.9639" x="608.9" y="73.9951">Nuxt.js Landing Page</text></g><!--entity Components--><g class="entity" data-entity="Components" data-source-line="5" data-uid="ent0004" id="entity_Components"><rect fill="#F1F1F1" height="46.2969" rx="2.5" ry="2.5" style="stroke:#181818;stroke-width:0.5;" width="160.0869" x="398.84" y="41"/><rect fill="#F1F1F1" height="10" style="stroke:#181818;stroke-width:0.5;" width="15" x="538.9269" y="46"/><rect fill="#F1F1F1" height="2" style="stroke:#181818;stroke-width:0.5;" width="4" x="536.9269" y="48"/><rect fill="#F1F1F1" height="2" style="stroke:#181818;stroke-width:0.5;" width="4" x="536.9269" y="52"/><text fill="#000000" font-family="sans-serif" font-size="14" lengthAdjust="spacing" textLength="120.0869" x="413.84" y="73.9951">Vue Components</text></g><!--entity UserForm--><g class="entity" data-entity="UserForm" data-source-line="6" data-uid="ent0005" id="entity_UserForm"><rect fill="#F1F1F1" height="46.2969" rx="2.5" ry="2.5" style="stroke:#181818;stroke-width:0.5;" width="143.3184" x="447.22" y="183.98"/><rect fill="#F1F1F1" height="10" style="stroke:#181818;stroke-width:0.5;" width="15" x="570.5384" y="188.98"/><rect fill="#F1F1F1" height="2" style="stroke:#181818;stroke-width:0.5;" width="4" x="568.5384" y="190.98"/><rect fill="#F1F1F1" height="2" style="stroke:#181818;stroke-width:0.5;" width="4" x="568.5384" y="194.98"/><text fill="#000000" font-family="sans-serif" font-size="14" lengthAdjust="spacing" textLength="103.3184" x="462.22" y="216.9751">User Info Form</text></g><!--entity Upload--><g class="entity" data-entity="Upload" data-source-line="7" data-uid="ent0006" id="entity_Upload"><rect fill="#F1F1F1" height="46.2969" rx="2.5" ry="2.5" style="stroke:#181818;stroke-width:0.5;" width="136.7764" x="464.49" y="326.97"/><rect fill="#F1F1F1" height="10" style="stroke:#181818;stroke-width:0.5;" width="15" x="581.2664" y="331.97"/><rect fill="#F1F1F1" height="2" style="stroke:#181818;stroke-width:0.5;" width="4" x="579.2664" y="333.97"/><rect fill="#F1F1F1" height="2" style="stroke:#181818;stroke-width:0.5;" width="4" x="579.2664" y="337.97"/><text fill="#000000" font-family="sans-serif" font-size="14" lengthAdjust="spacing" textLength="96.7764" x="479.49" y="359.9651">File Upload UI</text></g><!--entity Dashboard--><g class="entity" data-entity="Dashboard" data-source-line="8" data-uid="ent0007" id="entity_Dashboard"><rect fill="#F1F1F1" height="46.2969" rx="2.5" ry="2.5" style="stroke:#181818;stroke-width:0.5;" width="135.0264" x="646.37" y="573.56"/><rect fill="#F1F1F1" height="10" style="stroke:#181818;stroke-width:0.5;" width="15" x="761.3964" y="578.56"/><rect fill="#F1F1F1" height="2" style="stroke:#181818;stroke-width:0.5;" width="4" x="759.3964" y="580.56"/><rect fill="#F1F1F1" height="2" style="stroke:#181818;stroke-width:0.5;" width="4" x="759.3964" y="584.56"/><text fill="#000000" font-family="sans-serif" font-size="14" lengthAdjust="spacing" textLength="95.0264" x="661.37" y="606.5551">Dashboard UI</text></g><!--entity Progress--><g class="entity" data-entity="Progress" data-source-line="9" data-uid="ent0008" id="entity_Progress"><rect fill="#F1F1F1" height="46.2969" rx="2.5" ry="2.5" style="stroke:#181818;stroke-width:0.5;" width="128.9971" x="595.38" y="450.26"/><rect fill="#F1F1F1" height="10" style="stroke:#181818;stroke-width:0.5;" width="15" x="704.3771" y="455.26"/><rect fill="#F1F1F1" height="2" style="stroke:#181818;stroke-width:0.5;" width="4" x="702.3771" y="457.26"/><rect fill="#F1F1F1" height="2" style="stroke:#181818;stroke-width:0.5;" width="4" x="702.3771" y="461.26"/><text fill="#000000" font-family="sans-serif" font-size="14" lengthAdjust="spacing" textLength="88.9971" x="610.38" y="483.2551">Progress Bar</text></g><!--entity API--><g class="entity" data-entity="API" data-source-line="13" data-uid="ent0010" id="entity_API"><rect fill="#F1F1F1" height="46.2969" rx="2.5" ry="2.5" style="stroke:#181818;stroke-width:0.5;" width="157.8584" x="717.95" y="719.86"/><rect fill="#F1F1F1" height="10" style="stroke:#181818;stroke-width:0.5;" width="15" x="855.8084" y="724.86"/><rect fill="#F1F1F1" height="2" style="stroke:#181818;stroke-width:0.5;" width="4" x="853.8084" y="726.86"/><rect fill="#F1F1F1" height="2" style="stroke:#181818;stroke-width:0.5;" width="4" x="853.8084" y="730.86"/><text fill="#000000" font-family="sans-serif" font-size="14" lengthAdjust="spacing" textLength="117.8584" x="732.95" y="752.8551">FastAPI Gateway</text></g><!--entity UserReg--><g class="entity" data-entity="UserReg" data-source-line="14" data-uid="ent0011" id="entity_UserReg"><rect fill="#F1F1F1" height="46.2969" rx="2.5" ry="2.5" style="stroke:#181818;stroke-width:0.5;" width="161.4131" x="310.17" y="827.15"/><rect fill="#F1F1F1" height="10" style="stroke:#181818;stroke-width:0.5;" width="15" x="451.5831" y="832.15"/><rect fill="#F1F1F1" height="2" style="stroke:#181818;stroke-width:0.5;" width="4" x="449.5831" y="834.15"/><rect fill="#F1F1F1" height="2" style="stroke:#181818;stroke-width:0.5;" width="4" x="449.5831" y="838.15"/><text fill="#000000" font-family="sans-serif" font-size="14" lengthAdjust="spacing" textLength="121.4131" x="325.17" y="860.1451">User Registration</text></g><!--entity FileHandler--><g class="entity" data-entity="FileHandler" data-source-line="15" data-uid="ent0012" id="entity_FileHandler"><rect fill="#F1F1F1" height="46.2969" rx="2.5" ry="2.5" style="stroke:#181818;stroke-width:0.5;" width="124.0205" x="667.87" y="827.15"/><rect fill="#F1F1F1" height="10" style="stroke:#181818;stroke-width:0.5;" width="15" x="771.8905" y="832.15"/><rect fill="#F1F1F1" height="2" style="stroke:#181818;stroke-width:0.5;" width="4" x="769.8905" y="834.15"/><rect fill="#F1F1F1" height="2" style="stroke:#181818;stroke-width:0.5;" width="4" x="769.8905" y="838.15"/><text fill="#000000" font-family="sans-serif" font-size="14" lengthAdjust="spacing" textLength="84.0205" x="682.87" y="860.1451">File Handler</text></g><!--entity Engine--><g class="entity" data-entity="Engine" data-source-line="16" data-uid="ent0013" id="entity_Engine"><rect fill="#F1F1F1" height="46.2969" rx="2.5" ry="2.5" style="stroke:#181818;stroke-width:0.5;" width="150.1133" x="1015.82" y="827.15"/><rect fill="#F1F1F1" height="10" style="stroke:#181818;stroke-width:0.5;" width="15" x="1145.9333" y="832.15"/><rect fill="#F1F1F1" height="2" style="stroke:#181818;stroke-width:0.5;" width="4" x="1143.9333" y="834.15"/><rect fill="#F1F1F1" height="2" style="stroke:#181818;stroke-width:0.5;" width="4" x="1143.9333" y="838.15"/><text fill="#000000" font-family="sans-serif" font-size="14" lengthAdjust="spacing" textLength="110.1133" x="1030.82" y="860.1451">Analysis Engine</text></g><!--entity RateLimit--><g class="entity" data-entity="RateLimit" data-source-line="17" data-uid="ent0014" id="entity_RateLimit"><rect fill="#F1F1F1" height="46.2969" rx="2.5" ry="2.5" style="stroke:#181818;stroke-width:0.5;" width="125.9346" x="506.91" y="827.15"/><rect fill="#F1F1F1" height="10" style="stroke:#181818;stroke-width:0.5;" width="15" x="612.8446" y="832.15"/><rect fill="#F1F1F1" height="2" style="stroke:#181818;stroke-width:0.5;" width="4" x="610.8446" y="834.15"/><rect fill="#F1F1F1" height="2" style="stroke:#181818;stroke-width:0.5;" width="4" x="610.8446" y="838.15"/><text fill="#000000" font-family="sans-serif" font-size="14" lengthAdjust="spacing" textLength="85.9346" x="521.91" y="860.1451">Rate Limiter</text></g><!--entity SupabaseClient--><g class="entity" data-entity="SupabaseClient" data-source-line="18" data-uid="ent0015" id="entity_SupabaseClient"><rect fill="#F1F1F1" height="46.2969" rx="2.5" ry="2.5" style="stroke:#181818;stroke-width:0.5;" width="153.5791" x="827.09" y="827.15"/><rect fill="#F1F1F1" height="10" style="stroke:#181818;stroke-width:0.5;" width="15" x="960.6691" y="832.15"/><rect fill="#F1F1F1" height="2" style="stroke:#181818;stroke-width:0.5;" width="4" x="958.6691" y="834.15"/><rect fill="#F1F1F1" height="2" style="stroke:#181818;stroke-width:0.5;" width="4" x="958.6691" y="838.15"/><text fill="#000000" font-family="sans-serif" font-size="14" lengthAdjust="spacing" textLength="113.5791" x="842.09" y="860.1451">Supabase Client</text></g><!--entity LC--><g class="entity" data-entity="LC" data-source-line="22" data-uid="ent0017" id="entity_LC"><rect fill="#F1F1F1" height="46.2969" rx="2.5" ry="2.5" style="stroke:#181818;stroke-width:0.5;" width="112.0508" x="1159.85" y="973.45"/><rect fill="#F1F1F1" height="10" style="stroke:#181818;stroke-width:0.5;" width="15" x="1251.9008" y="978.45"/><rect fill="#F1F1F1" height="2" style="stroke:#181818;stroke-width:0.5;" width="4" x="1249.9008" y="980.45"/><rect fill="#F1F1F1" height="2" style="stroke:#181818;stroke-width:0.5;" width="4" x="1249.9008" y="984.45"/><text fill="#000000" font-family="sans-serif" font-size="14" lengthAdjust="spacing" textLength="72.0508" x="1174.85" y="1006.4451">Langchain</text></g><!--entity Gemini--><g class="entity" data-entity="Gemini" data-source-line="23" data-uid="ent0018" id="entity_Gemini"><rect fill="#F1F1F1" height="46.2969" rx="2.5" ry="2.5" style="stroke:#181818;stroke-width:0.5;" width="157.6055" x="1137.08" y="1096.75"/><rect fill="#F1F1F1" height="10" style="stroke:#181818;stroke-width:0.5;" width="15" x="1274.6855" y="1101.75"/><rect fill="#F1F1F1" height="2" style="stroke:#181818;stroke-width:0.5;" width="4" x="1272.6855" y="1103.75"/><rect fill="#F1F1F1" height="2" style="stroke:#181818;stroke-width:0.5;" width="4" x="1272.6855" y="1107.75"/><text fill="#000000" font-family="sans-serif" font-size="14" lengthAdjust="spacing" textLength="117.6055" x="1152.08" y="1129.7451">Gemini 2.5 Flash</text></g><!--entity DB--><g class="entity" data-entity="DB" data-source-line="27" data-uid="ent0020" id="entity_DB"><path d="M297.5,983.95 C297.5,973.95 347.8765,973.95 347.8765,973.95 C347.8765,973.95 398.2529,973.95 398.2529,983.95 L398.2529,1009.2469 C398.2529,1019.2469 347.8765,1019.2469 347.8765,1019.2469 C347.8765,1019.2469 297.5,1019.2469 297.5,1009.2469 L297.5,983.95" fill="#F1F1F1" style="stroke:#181818;stroke-width:0.5;"/><path d="M297.5,983.95 C297.5,993.95 347.8765,993.95 347.8765,993.95 C347.8765,993.95 398.2529,993.95 398.2529,983.95" fill="none" style="stroke:#181818;stroke-width:0.5;"/><text fill="#000000" font-family="sans-serif" font-size="14" lengthAdjust="spacing" textLength="80.7529" x="307.5" y="1010.9451">PostgreSQL</text></g><!--entity Auth--><g class="entity" data-entity="Auth" data-source-line="28" data-uid="ent0021" id="entity_Auth"><rect fill="#F1F1F1" height="46.2969" rx="2.5" ry="2.5" style="stroke:#181818;stroke-width:0.5;" width="145.8613" x="635.95" y="973.45"/><rect fill="#F1F1F1" height="10" style="stroke:#181818;stroke-width:0.5;" width="15" x="761.8113" y="978.45"/><rect fill="#F1F1F1" height="2" style="stroke:#181818;stroke-width:0.5;" width="4" x="759.8113" y="980.45"/><rect fill="#F1F1F1" height="2" style="stroke:#181818;stroke-width:0.5;" width="4" x="759.8113" y="984.45"/><text fill="#000000" font-family="sans-serif" font-size="14" lengthAdjust="spacing" textLength="105.8613" x="650.95" y="1006.4451">Supabase Auth</text></g><!--entity Storage--><g class="entity" data-entity="Storage" data-source-line="29" data-uid="ent0022" id="entity_Storage"><rect fill="#F1F1F1" height="46.2969" rx="2.5" ry="2.5" style="stroke:#181818;stroke-width:0.5;" width="167.8252" x="432.97" y="973.45"/><rect fill="#F1F1F1" height="10" style="stroke:#181818;stroke-width:0.5;" width="15" x="580.7952" y="978.45"/><rect fill="#F1F1F1" height="2" style="stroke:#181818;stroke-width:0.5;" width="4" x="578.7952" y="980.45"/><rect fill="#F1F1F1" height="2" style="stroke:#181818;stroke-width:0.5;" width="4" x="578.7952" y="984.45"/><text fill="#000000" font-family="sans-serif" font-size="14" lengthAdjust="spacing" textLength="127.8252" x="447.97" y="1006.4451">Supabase Storage</text></g><!--entity RLS--><g class="entity" data-entity="RLS" data-source-line="30" data-uid="ent0023" id="entity_RLS"><rect fill="#F1F1F1" height="46.2969" rx="2.5" ry="2.5" style="stroke:#181818;stroke-width:0.5;" width="139.4629" x="416.15" y="1096.75"/><rect fill="#F1F1F1" height="10" style="stroke:#181818;stroke-width:0.5;" width="15" x="535.6129" y="1101.75"/><rect fill="#F1F1F1" height="2" style="stroke:#181818;stroke-width:0.5;" width="4" x="533.6129" y="1103.75"/><rect fill="#F1F1F1" height="2" style="stroke:#181818;stroke-width:0.5;" width="4" x="533.6129" y="1107.75"/><text fill="#000000" font-family="sans-serif" font-size="14" lengthAdjust="spacing" textLength="99.4629" x="431.15" y="1129.7451">Supabase RLS</text></g><!--entity GoogleAPI--><g class="entity" data-entity="GoogleAPI" data-source-line="34" data-uid="ent0025" id="entity_GoogleAPI"><rect fill="#F1F1F1" height="46.2969" rx="2.5" ry="2.5" style="stroke:#181818;stroke-width:0.5;" width="134.124" x="1148.82" y="1243.04"/><rect fill="#F1F1F1" height="10" style="stroke:#181818;stroke-width:0.5;" width="15" x="1262.944" y="1248.04"/><rect fill="#F1F1F1" height="2" style="stroke:#181818;stroke-width:0.5;" width="4" x="1260.944" y="1250.04"/><rect fill="#F1F1F1" height="2" style="stroke:#181818;stroke-width:0.5;" width="4" x="1260.944" y="1254.04"/><text fill="#000000" font-family="sans-serif" font-size="14" lengthAdjust="spacing" textLength="94.124" x="1163.82" y="1276.0351">Google AI API</text></g><g class="entity" data-entity="GMN53" data-source-line="74" data-uid="ent0054" id="entity_GMN53"><path d="M813.59,164.3 L813.59,203.13 L590.88,207.13 L813.59,211.13 L813.59,249.9641 A0,0 0 0 0 813.59,249.9641 L996.1696,249.9641 A0,0 0 0 0 996.1696,249.9641 L996.1696,174.3 L986.1696,164.3 L813.59,164.3 A0,0 0 0 0 813.59,164.3" fill="#FEFFDD" style="stroke:#181818;stroke-width:0.5;"/><path d="M986.1696,164.3 L986.1696,174.3 L996.1696,174.3 L986.1696,164.3" fill="#FEFFDD" style="stroke:#181818;stroke-width:0.5;"/><text fill="#000000" font-family="sans-serif" font-size="13" lengthAdjust="spacing" textLength="104.9648" x="819.59" y="181.3669">Required Fields:</text><text fill="#000000" font-family="sans-serif" font-size="13" lengthAdjust="spacing" textLength="44.8906" x="819.59" y="196.4997">- Email</text><text fill="#000000" font-family="sans-serif" font-size="13" lengthAdjust="spacing" textLength="74.2485" x="819.59" y="211.6325">- Full Name</text><text fill="#000000" font-family="sans-serif" font-size="13" lengthAdjust="spacing" textLength="49.0928" x="819.59" y="226.7653">- Phone</text><text fill="#000000" font-family="sans-serif" font-size="13" lengthAdjust="spacing" textLength="161.5796" x="819.59" y="241.8981">(Gates access to upload)</text></g><!--link Frontend to API--><g class="link" data-entity-1="Frontend" data-entity-2="API" data-source-line="38" data-uid="lnk26" id="link_Frontend_API"><path d="M782.26,82.73 C889.22,105.41 1048.88,148.86 1048.88,206.13 C1048.88,206.13 1048.88,206.13 1048.88,597.71 C1048.88,678.5 955.9977,713.4272 882.1377,729.1972" fill="none" id="Frontend-to-API" style="stroke:#181818;stroke-width:1;"/><polygon fill="#181818" points="876.27,730.45,885.9068,732.4826,881.1598,729.406,884.2364,724.6589,876.27,730.45" style="stroke:#181818;stroke-width:1;"/><text fill="#000000" font-family="sans-serif" font-size="13" lengthAdjust="spacing" textLength="58.1382" x="1049.88" y="416.3269">REST API</text></g><!--link Components to UserForm--><g class="link" data-entity-1="Components" data-entity-2="UserForm" data-source-line="39" data-uid="lnk27" id="link_Components_UserForm"><path d="M485.22,87.49 C492.71,113.89 503.4515,151.7781 510.9315,178.1281" fill="none" id="Components-to-UserForm" style="stroke:#181818;stroke-width:1;"/><polygon fill="#181818" points="512.57,183.9,513.9602,174.1498,511.2046,179.09,506.2643,176.3344,512.57,183.9" style="stroke:#181818;stroke-width:1;"/><text fill="#000000" font-family="sans-serif" font-size="13" lengthAdjust="spacing" textLength="62.0356" x="498.68" y="130.3669">First Step</text></g><!--link UserForm to Upload--><g class="link" data-entity-1="UserForm" data-entity-2="Upload" data-source-line="40" data-uid="lnk28" id="link_UserForm_Upload"><path d="M521.1,230.47 C523.72,256.87 527.4563,294.5594 530.0763,320.9094" fill="none" id="UserForm-to-Upload" style="stroke:#181818;stroke-width:1;"/><polygon fill="#181818" points="530.67,326.88,533.7599,317.5284,530.1753,321.9045,525.7991,318.3199,530.67,326.88" style="stroke:#181818;stroke-width:1;"/><text fill="#000000" font-family="sans-serif" font-size="13" lengthAdjust="spacing" textLength="125.5249" x="528.54" y="293.0369">After Info Collected</text></g><!--link Upload to Progress--><g class="link" data-entity-1="Upload" data-entity-2="Progress" data-source-line="41" data-uid="lnk29" id="link_Upload_Progress"><path d="M556.47,373.64 C579.28,395.43 609.3113,424.1057 632.0813,445.8557" fill="none" id="Upload-to-Progress" style="stroke:#181818;stroke-width:1;"/><polygon fill="#181818" points="636.42,450,632.6748,440.891,632.8044,446.5464,627.149,446.6759,636.42,450" style="stroke:#181818;stroke-width:1;"/><text fill="#000000" font-family="sans-serif" font-size="13" lengthAdjust="spacing" textLength="93.3804" x="604.98" y="416.3269">During Upload</text></g><!--link Progress to Dashboard--><g class="link" data-entity-1="Progress" data-entity-2="Dashboard" data-source-line="42" data-uid="lnk30" id="link_Progress_Dashboard"><path d="M669.91,496.94 C679.61,518.73 691.7804,546.0684 701.4604,567.8184" fill="none" id="Progress-to-Dashboard" style="stroke:#181818;stroke-width:1;"/><polygon fill="#181818" points="703.9,573.3,703.895,563.4511,701.867,568.732,696.5861,566.704,703.9,573.3" style="stroke:#181818;stroke-width:1;"/><text fill="#000000" font-family="sans-serif" font-size="13" lengthAdjust="spacing" textLength="89.6035" x="691.11" y="539.6269">After Analysis</text></g><!--link UserForm to UserReg--><g class="link" data-entity-1="UserForm" data-entity-2="UserReg" data-source-line="44" data-uid="lnk31" id="link_UserForm_UserReg"><path d="M481.57,230.59 C446.34,254.95 398.88,297.37 398.88,349.11 C398.88,349.11 398.88,349.11 398.88,744 C398.88,772.6 396.56,799.4853 394.24,820.7753" fill="none" id="UserForm-to-UserReg" style="stroke:#181818;stroke-width:1;"/><polygon fill="#181818" points="393.59,826.74,398.5414,818.2263,394.1317,821.7694,390.5885,817.3596,393.59,826.74" style="stroke:#181818;stroke-width:1;"/><text fill="#000000" font-family="sans-serif" font-size="13" lengthAdjust="spacing" textLength="107.1167" x="399.88" y="539.6269">Submit user info</text></g><!--link Upload to FileHandler--><g class="link" data-entity-1="Upload" data-entity-2="FileHandler" data-source-line="45" data-uid="lnk32" id="link_Upload_FileHandler"><path d="M532.88,373.47 C532.88,397.81 532.88,437.87 532.88,472.41 C532.88,472.41 532.88,472.41 532.88,744 C532.88,775.03 604.1813,806.3771 661.9013,827.0471" fill="none" id="Upload-to-FileHandler" style="stroke:#181818;stroke-width:1;"/><polygon fill="#181818" points="667.55,829.07,660.4255,822.2699,662.8427,827.3843,657.7283,829.8015,667.55,829.07" style="stroke:#181818;stroke-width:1;"/><text fill="#000000" font-family="sans-serif" font-size="13" lengthAdjust="spacing" textLength="76.2544" x="533.88" y="601.2769">Upload files</text></g><!--link Dashboard to API--><g class="link" data-entity-1="Dashboard" data-entity-2="API" data-source-line="46" data-uid="lnk33" id="link_Dashboard_API"><path d="M726.85,620.25 C742.44,647.36 765.4589,687.3787 781.0089,714.4187" fill="none" id="Dashboard-to-API" style="stroke:#181818;stroke-width:1;"/><polygon fill="#181818" points="784,719.62,782.9808,709.824,781.5074,715.2856,776.0458,713.8122,784,719.62" style="stroke:#181818;stroke-width:1;"/><text fill="#000000" font-family="sans-serif" font-size="13" lengthAdjust="spacing" textLength="71.1382" x="753.89" y="664.9269">Get results</text></g><!--link API to UserReg--><g class="link" data-entity-1="API" data-entity-2="UserReg" data-source-line="49" data-uid="lnk34" id="link_API_UserReg"><path d="M717.63,764.56 C646.79,782.93 549.2279,808.2337 477.8179,826.7537" fill="none" id="API-to-UserReg" style="stroke:#181818;stroke-width:1;"/><polygon fill="#181818" points="472.01,828.26,481.726,829.8725,476.8499,827.0048,479.7176,822.1287,472.01,828.26" style="stroke:#181818;stroke-width:1;"/></g><!--link API to FileHandler--><g class="link" data-entity-1="API" data-entity-2="FileHandler" data-source-line="50" data-uid="lnk35" id="link_API_FileHandler"><path d="M782.51,766.59 C771.2,784.36 758.7509,803.9278 747.4509,821.6878" fill="none" id="API-to-FileHandler" style="stroke:#181818;stroke-width:1;"/><polygon fill="#181818" points="744.23,826.75,752.4361,821.304,746.9141,822.5315,745.6865,817.0094,744.23,826.75" style="stroke:#181818;stroke-width:1;"/></g><!--link API to Engine--><g class="link" data-entity-1="API" data-entity-2="Engine" data-source-line="51" data-uid="lnk36" id="link_API_Engine"><path d="M859.95,766.59 C909.47,784.33 972.4514,806.8869 1022.0114,824.6369" fill="none" id="API-to-Engine" style="stroke:#181818;stroke-width:1;"/><polygon fill="#181818" points="1027.66,826.66,1020.5357,819.8596,1022.9528,824.9741,1017.8383,827.3912,1027.66,826.66" style="stroke:#181818;stroke-width:1;"/></g><!--link API to RateLimit--><g class="link" data-entity-1="API" data-entity-2="RateLimit" data-source-line="52" data-uid="lnk37" id="link_API_RateLimit"><path d="M748.18,766.59 C709.88,784.36 662.2228,806.4648 623.9428,824.2248" fill="none" id="API-to-RateLimit" style="stroke:#181818;stroke-width:1;"/><polygon fill="#181818" points="618.5,826.75,628.3476,826.5908,623.0356,824.6457,624.9807,819.3338,618.5,826.75" style="stroke:#181818;stroke-width:1;"/></g><!--link API to SupabaseClient--><g class="link" data-entity-1="API" data-entity-2="SupabaseClient" data-source-line="53" data-uid="lnk38" id="link_API_SupabaseClient"><path d="M819.83,766.59 C837.89,784.36 858.6443,804.7807 876.6843,822.5407" fill="none" id="API-to-SupabaseClient" style="stroke:#181818;stroke-width:1;"/><polygon fill="#181818" points="880.96,826.75,877.3527,817.5855,877.3969,823.2422,871.7402,823.2865,880.96,826.75" style="stroke:#181818;stroke-width:1;"/></g><!--link UserReg to Auth--><g class="link" data-entity-1="UserReg" data-entity-2="Auth" data-source-line="55" data-uid="lnk39" id="link_UserReg_Auth"><path d="M431.1,873.92 C448.63,882.75 469.74,892.03 489.88,897.45 C528.23,907.77 541.3,892.59 578.88,905.45 C598.36,912.12 600.84,918.9 617.88,930.45 C638.3,944.29 656.0058,956.9134 673.5558,969.6634" fill="none" id="UserReg-to-Auth" style="stroke:#181818;stroke-width:1;"/><polygon fill="#181818" points="678.41,973.19,673.4797,964.664,674.3648,970.2512,668.7776,971.1363,678.41,973.19" style="stroke:#181818;stroke-width:1;"/><text fill="#000000" font-family="sans-serif" font-size="13" lengthAdjust="spacing" textLength="132.5454" x="607.98" y="918.5169">Create/validate user</text></g><!--link FileHandler to Storage--><g class="link" data-entity-1="FileHandler" data-entity-2="Storage" data-source-line="56" data-uid="lnk40" id="link_FileHandler_Storage"><path d="M698.76,873.84 C684.56,882.88 667.1,892.35 649.88,897.45 C633.56,902.28 508.6,893.1 496.88,905.45 C479.77,923.47 487.7885,947.4793 499.0885,967.7493" fill="none" id="FileHandler-to-Storage" style="stroke:#181818;stroke-width:1;"/><polygon fill="#181818" points="502.01,972.99,501.1215,963.1813,499.5754,968.6228,494.1339,967.0767,502.01,972.99" style="stroke:#181818;stroke-width:1;"/><text fill="#000000" font-family="sans-serif" font-size="13" lengthAdjust="spacing" textLength="76.2544" x="497.88" y="918.5169">Upload files</text></g><!--link Engine to LC--><g class="link" data-entity-1="Engine" data-entity-2="LC" data-source-line="57" data-uid="lnk41" id="link_Engine_LC"><path d="M1137.64,873.78 C1151.62,882.21 1166.09,892.86 1176.88,905.45 C1193.86,925.26 1202.7694,947.8361 1208.5594,967.4261" fill="none" id="Engine-to-LC" style="stroke:#181818;stroke-width:1;"/><polygon fill="#181818" points="1210.26,973.18,1211.545,963.4153,1208.8428,968.385,1203.8731,965.6828,1210.26,973.18" style="stroke:#181818;stroke-width:1;"/><text fill="#000000" font-family="sans-serif" font-size="13" lengthAdjust="spacing" textLength="126.3247" x="1188.78" y="918.5169">Process documents</text></g><!--link LC to Gemini--><g class="link" data-entity-1="LC" data-entity-2="Gemini" data-source-line="58" data-uid="lnk42" id="link_LC_Gemini"><path d="M1215.88,1020.13 C1215.88,1041.92 1215.88,1068.74 1215.88,1090.48" fill="none" id="LC-to-Gemini" style="stroke:#181818;stroke-width:1;"/><polygon fill="#181818" points="1215.88,1096.48,1219.88,1087.48,1215.88,1091.48,1211.88,1087.48,1215.88,1096.48" style="stroke:#181818;stroke-width:1;"/><text fill="#000000" font-family="sans-serif" font-size="13" lengthAdjust="spacing" textLength="70.4209" x="1216.88" y="1062.8169">AI Analysis</text></g><!--link Gemini to GoogleAPI--><g class="link" data-entity-1="Gemini" data-entity-2="GoogleAPI" data-source-line="59" data-uid="lnk43" id="link_Gemini_GoogleAPI"><path d="M1215.88,1143.44 C1215.88,1170.55 1215.88,1209.77 1215.88,1236.8" fill="none" id="Gemini-to-GoogleAPI" style="stroke:#181818;stroke-width:1;"/><polygon fill="#181818" points="1215.88,1242.8,1219.88,1233.8,1215.88,1237.8,1211.88,1233.8,1215.88,1242.8" style="stroke:#181818;stroke-width:1;"/><text fill="#000000" font-family="sans-serif" font-size="13" lengthAdjust="spacing" textLength="53.8091" x="1216.88" y="1188.1069">API calls</text></g><!--link SupabaseClient to DB--><g class="link" data-entity-1="SupabaseClient" data-entity-2="DB" data-source-line="62" data-uid="lnk44" id="link_SupabaseClient_DB"><path d="M867.35,873.89 C850.5,883.06 829.85,892.62 809.88,897.45 C786.06,903.21 387.93,890.04 368.88,905.45 C349.01,921.52 345.6176,946.4009 345.9776,967.5009" fill="none" id="SupabaseClient-to-DB" style="stroke:#181818;stroke-width:1;"/><polygon fill="#181818" points="346.08,973.5,349.9259,964.4331,345.9947,968.5007,341.927,964.5695,346.08,973.5" style="stroke:#181818;stroke-width:1;"/><text fill="#000000" font-family="sans-serif" font-size="13" lengthAdjust="spacing" textLength="110.957" x="369.88" y="918.5169">CRUD operations</text></g><!--link SupabaseClient to Auth--><g class="link" data-entity-1="SupabaseClient" data-entity-2="Auth" data-source-line="63" data-uid="lnk45" id="link_SupabaseClient_Auth"><path d="M949.23,873.75 C964.64,881.33 981.99,889.81 997.88,897.45 C1005.4,901.07 1010.4,898.4 1014.88,905.45 C1018.93,911.83 1019.56,916.52 1014.88,922.45 C986.41,958.52 869.148,978.0613 788.018,987.7113" fill="none" id="SupabaseClient-to-Auth" style="stroke:#181818;stroke-width:1;"/><polygon fill="#181818" points="782.06,988.42,791.4695,991.329,787.025,987.8294,790.5246,983.385,782.06,988.42" style="stroke:#181818;stroke-width:1;"/><text fill="#000000" font-family="sans-serif" font-size="13" lengthAdjust="spacing" textLength="120.8467" x="1019.16" y="918.5169">User management</text></g><!--link SupabaseClient to Storage--><g class="link" data-entity-1="SupabaseClient" data-entity-2="Storage" data-source-line="64" data-uid="lnk46" id="link_SupabaseClient_Storage"><path d="M901.79,873.9 C898.97,890.27 892.37,911.4 876.88,922.45 C853.53,939.1 646.28,921.98 618.88,930.45 C590.57,939.2 567.2334,954.3828 547.7334,969.5728" fill="none" id="SupabaseClient-to-Storage" style="stroke:#181818;stroke-width:1;"/><polygon fill="#181818" points="543,973.26,552.5582,970.8848,546.9445,970.1874,547.6419,964.5737,543,973.26" style="stroke:#181818;stroke-width:1;"/><text fill="#000000" font-family="sans-serif" font-size="13" lengthAdjust="spacing" textLength="96.021" x="892.28" y="918.5169">File operations</text></g><!--link DB to RLS--><g class="link" data-entity-1="DB" data-entity-2="RLS" data-source-line="65" data-uid="lnk47" id="link_DB_RLS"><path d="M372.87,1019.56 C397.57,1041.27 430.6735,1070.3688 455.6335,1092.3088" fill="none" id="DB-to-RLS" style="stroke:#181818;stroke-width:1;"/><polygon fill="#181818" points="460.14,1096.27,456.0211,1087.3238,456.3846,1092.969,450.7394,1093.3325,460.14,1096.27" style="stroke:#181818;stroke-width:1;"/><text fill="#000000" font-family="sans-serif" font-size="13" lengthAdjust="spacing" textLength="123.811" x="426.14" y="1062.8169">Row Level Security</text></g><!--link Auth to RLS--><g class="link" data-entity-1="Auth" data-entity-2="RLS" data-source-line="66" data-uid="lnk48" id="link_Auth_RLS"><path d="M667.46,1020.13 C627.53,1041.85 572.7105,1071.6627 532.7305,1093.4127" fill="none" id="Auth-to-RLS" style="stroke:#181818;stroke-width:1;"/><polygon fill="#181818" points="527.46,1096.28,537.2773,1095.4928,531.8521,1093.8906,533.4543,1088.4654,527.46,1096.28" style="stroke:#181818;stroke-width:1;"/><text fill="#000000" font-family="sans-serif" font-size="13" lengthAdjust="spacing" textLength="82.9893" x="611.73" y="1062.8169">User context</text></g><!--link UserReg to DB--><g class="link" data-entity-1="UserReg" data-entity-2="DB" data-source-line="69" data-uid="lnk49" id="link_UserReg_DB"><path d="M309.83,853.45 C225.01,857.6 100.03,869.79 69.88,905.45 C6,981 194.741,993.6486 291.171,995.4386" fill="none" id="UserReg-to-DB" style="stroke:#181818;stroke-width:1;"/><polygon fill="#181818" points="297.17,995.55,288.2458,991.3837,292.1709,995.4572,288.0973,999.3823,297.17,995.55" style="stroke:#181818;stroke-width:1;"/><text fill="#000000" font-family="sans-serif" font-size="13" lengthAdjust="spacing" textLength="112.6138" x="70.88" y="918.5169">Store user profile</text></g><!--link Engine to DB--><g class="link" data-entity-1="Engine" data-entity-2="DB" data-source-line="70" data-uid="lnk50" id="link_Engine_DB"><path d="M1054.72,873.71 C1038.05,882.85 1017.62,892.43 997.88,897.45 C906.07,920.8 876.91,882.99 784.88,905.45 C767.69,909.64 766.1,918.37 748.88,922.45 C712.86,930.98 450.05,916.24 415.88,930.45 C394.44,939.36 379.6295,953.7619 367.3395,968.9819" fill="none" id="Engine-to-DB" style="stroke:#181818;stroke-width:1;"/><polygon fill="#181818" points="363.57,973.65,372.3362,969.1608,366.7112,969.7599,366.1121,964.1349,363.57,973.65" style="stroke:#181818;stroke-width:1;"/><text fill="#000000" font-family="sans-serif" font-size="13" lengthAdjust="spacing" textLength="82.6147" x="785.88" y="918.5169">Store results</text></g><!--link RateLimit to DB--><g class="link" data-entity-1="RateLimit" data-entity-2="DB" data-source-line="71" data-uid="lnk51" id="link_RateLimit_DB"><path d="M538.77,873.78 C524.33,882.93 506.49,892.5 488.88,897.45 C474.7,901.44 234.14,894.88 223.88,905.45 C193.95,936.3 245.4716,962.1043 291.7716,978.4343" fill="none" id="RateLimit-to-DB" style="stroke:#181818;stroke-width:1;"/><polygon fill="#181818" points="297.43,980.43,290.2729,973.6642,292.7147,978.7669,287.612,981.2087,297.43,980.43" style="stroke:#181818;stroke-width:1;"/><text fill="#000000" font-family="sans-serif" font-size="13" lengthAdjust="spacing" textLength="79.4917" x="224.88" y="918.5169">Check limits</text></g><!--link API to Auth--><g class="link" data-entity-1="API" data-entity-2="Auth" data-source-line="72" data-uid="lnk52" id="link_API_Auth"><path d="M876.04,745.72 C1053.81,752.08 1458.94,781.96 1323.88,922.45 C1316.06,930.59 1132.11,929.34 1120.88,930.45 C1001.61,942.19 870.2579,964.8778 788.1179,980.2278" fill="none" id="API-to-Auth" style="stroke:#181818;stroke-width:1;"/><polygon fill="#181818" points="782.22,981.33,791.8016,983.6087,787.1349,980.4115,790.3321,975.7448,782.22,981.33" style="stroke:#181818;stroke-width:1;"/><text fill="#000000" font-family="sans-serif" font-size="13" lengthAdjust="spacing" textLength="112.4233" x="1351.94" y="854.8669">Validate sessions</text></g><!--SRC=[RLHDRzim3BtxLt2-R3kq0mRiqiE0V2-0KMJnsikwWsehZbPPoYIvRJ3ilu-KBDaEUZ54ybda8n_rhkO7eJZiLuiVizjDiO9ACckpxCIg9zPmoDT6AyTL3GKxSvF3tmpWvsttwgv_M_IfMgW6TWZz1Sn2H1FelkEmqEr9AwwSzU719C2TvGQswg1XhKth0UGYWy9h8JdSdQHcDTnjGzXR55moUtpKpAHGSb1qPtHZkBKmPyP7eoFxDw8snyCbipMpRhRRmeOv_iBE_cUqKxbxtWZh37D2grGnEbF1tx0baeUivEXjYiyKasShBAnKWqtta72aw1upGY5QuVg_oU5jYfRTYJqoYnsL0lld0T4NN1DgiorHhf0nZgUdXiDggYCJeUvYGRuDRuKIyFdw2wnny4SV2ix9VIbzoSspm7l3dJLpmPtlj7NOuV9xaVjfp2T5ppeNhgR3958wRQ9u-lCalY_Aq8oYd1IqUiKsOJzxRXkj6sm-qiPX1HBUGwF3tzudOKAbbU8LZSzcoNbrzPL-X1jSXFA77_WWLH-DmaH8lXR6EgoMd_8i-JqeY1KXiuEBsbveAJ4Xhn4SuWHD2aNmiZEqH26QPob4k47dwTOeepoxo1wKYC2oUqJPG4U25LZ3EF58auZi0mTqscp8DVHZmnrWCPt4bSKsnfKPTv60e_p97gi_-dgvHtEGUFHSQ3gBf7n5A1uiQM4u_lRfcKbHqyuGpMnCozyJj7H9CUJtY6A1mNv9eDPLr_ft2TqKxHVZnakgRtZMEtqyoeiW-AsObBv3IRdZ5arPXS7EYSh-RWdwnCDxyYQk9-qVdvOfv4HrleKSAFk7Q7GjvlBTBafIk7w1WZzpYRjSeVBSEVCv1eJFLT5gl3gYjCGjXuFKBvDfU0AKCqm0JaPJZySj7a6YXjB4Hqquyke993a7CVMqx-EGBJrbn2LJ6aqZcgC3VHZlvPx_wOJXDTBdihOt3-eALYqJaWxhJaguPIqdOtV4pNvG7-YHjy0gBm6deVDI-VWV]--></g></svg>