<svg xmlns="http://www.w3.org/2000/svg" xmlns:xlink="http://www.w3.org/1999/xlink" contentStyleType="text/css" data-diagram-type="SEQUENCE" height="2317px" preserveAspectRatio="none" style="width:1724px;height:2317px;background:#FFFFFF;" version="1.1" viewBox="0 0 1724 2317" width="1724px" zoomAndPan="magnify"><defs/><g><rect fill="none" height="206.7344" style="stroke:#000000;stroke-width:1.5;" width="1165.6631" x="10" y="734.9531"/><g><title>User</title><rect fill="#000000" fill-opacity="0.00000" height="2155.1016" width="8" x="34.9551" y="81.2969"/><line style="stroke:#181818;stroke-width:0.5;stroke-dasharray:5.0,5.0;" x1="38" x2="38" y1="81.2969" y2="2236.3984"/></g><g><title>Nuxt Frontend</title><rect fill="#000000" fill-opacity="0.00000" height="2155.1016" width="8" x="343.5522" y="81.2969"/><line style="stroke:#181818;stroke-width:0.5;stroke-dasharray:5.0,5.0;" x1="347.2124" x2="347.2124" y1="81.2969" y2="2236.3984"/></g><g><title>User Info Form</title><rect fill="#000000" fill-opacity="0.00000" height="2155.1016" width="8" x="469.5513" y="81.2969"/><line style="stroke:#181818;stroke-width:0.5;stroke-dasharray:5.0,5.0;" x1="472.8921" x2="472.8921" y1="81.2969" y2="2236.3984"/></g><g><title>FastAPI Backend</title><rect fill="#000000" fill-opacity="0.00000" height="2155.1016" width="8" x="703.4111" y="81.2969"/><line style="stroke:#181818;stroke-width:0.5;stroke-dasharray:5.0,5.0;" x1="707.2236" x2="707.2236" y1="81.2969" y2="2236.3984"/></g><g><title>Supabase Auth</title><rect fill="#000000" fill-opacity="0.00000" height="2155.1016" width="8" x="918.5073" y="81.2969"/><line style="stroke:#181818;stroke-width:0.5;stroke-dasharray:5.0,5.0;" x1="921.5767" x2="921.5767" y1="81.2969" y2="2236.3984"/></g><g><title>Supabase DB</title><rect fill="#000000" fill-opacity="0.00000" height="2155.1016" width="8" x="1107.9463" y="81.2969"/><line style="stroke:#181818;stroke-width:0.5;stroke-dasharray:5.0,5.0;" x1="1111.2295" x2="1111.2295" y1="81.2969" y2="2236.3984"/></g><g><title>Supabase Storage</title><rect fill="#000000" fill-opacity="0.00000" height="2155.1016" width="8" x="1242.5757" y="81.2969"/><line style="stroke:#181818;stroke-width:0.5;stroke-dasharray:5.0,5.0;" x1="1245.6631" x2="1245.6631" y1="81.2969" y2="2236.3984"/></g><g><title>Langchain</title><rect fill="#000000" fill-opacity="0.00000" height="2155.1016" width="8" x="1397.896" y="81.2969"/><line style="stroke:#181818;stroke-width:0.5;stroke-dasharray:5.0,5.0;" x1="1401.8706" x2="1401.8706" y1="81.2969" y2="2236.3984"/></g><g><title>Gemini AI</title><rect fill="#000000" fill-opacity="0.00000" height="2155.1016" width="8" x="1667.2837" y="81.2969"/><line style="stroke:#181818;stroke-width:0.5;stroke-dasharray:5.0,5.0;" x1="1670.3296" x2="1670.3296" y1="81.2969" y2="2236.3984"/></g><g class="participant participant-head" data-participant="User"><text fill="#000000" font-family="sans-serif" font-size="14" lengthAdjust="spacing" textLength="31.9102" x="20" y="77.9951">User</text><ellipse cx="38.9551" cy="13.5" fill="#E2E2F0" rx="8" ry="8" style="stroke:#181818;stroke-width:0.5;"/><path d="M38.9551,21.5 L38.9551,48.5 M25.9551,29.5 L51.9551,29.5 M38.9551,48.5 L25.9551,63.5 M38.9551,48.5 L51.9551,63.5" fill="none" style="stroke:#181818;stroke-width:0.5;"/></g><g class="participant participant-tail" data-participant="User"><text fill="#000000" font-family="sans-serif" font-size="14" lengthAdjust="spacing" textLength="31.9102" x="20" y="2248.3936">User</text><ellipse cx="38.9551" cy="2260.1953" fill="#E2E2F0" rx="8" ry="8" style="stroke:#181818;stroke-width:0.5;"/><path d="M38.9551,2268.1953 L38.9551,2295.1953 M25.9551,2276.1953 L51.9551,2276.1953 M38.9551,2295.1953 L25.9551,2310.1953 M38.9551,2295.1953 L51.9551,2310.1953" fill="none" style="stroke:#181818;stroke-width:0.5;"/></g><g class="participant participant-head" data-participant="Frontend"><rect fill="#E2E2F0" height="30.2969" rx="2.5" ry="2.5" style="stroke:#181818;stroke-width:0.5;" width="114.6797" x="290.2124" y="50"/><text fill="#000000" font-family="sans-serif" font-size="14" lengthAdjust="spacing" textLength="100.6797" x="297.2124" y="69.9951">Nuxt Frontend</text></g><g class="participant participant-tail" data-participant="Frontend"><rect fill="#E2E2F0" height="30.2969" rx="2.5" ry="2.5" style="stroke:#181818;stroke-width:0.5;" width="114.6797" x="290.2124" y="2235.3984"/><text fill="#000000" font-family="sans-serif" font-size="14" lengthAdjust="spacing" textLength="100.6797" x="297.2124" y="2255.3936">Nuxt Frontend</text></g><g class="participant participant-head" data-participant="Form"><rect fill="#E2E2F0" height="30.2969" rx="2.5" ry="2.5" style="stroke:#181818;stroke-width:0.5;" width="117.3184" x="414.8921" y="50"/><text fill="#000000" font-family="sans-serif" font-size="14" lengthAdjust="spacing" textLength="103.3184" x="421.8921" y="69.9951">User Info Form</text></g><g class="participant participant-tail" data-participant="Form"><rect fill="#E2E2F0" height="30.2969" rx="2.5" ry="2.5" style="stroke:#181818;stroke-width:0.5;" width="117.3184" x="414.8921" y="2235.3984"/><text fill="#000000" font-family="sans-serif" font-size="14" lengthAdjust="spacing" textLength="103.3184" x="421.8921" y="2255.3936">User Info Form</text></g><g class="participant participant-head" data-participant="Backend"><rect fill="#E2E2F0" height="30.2969" rx="2.5" ry="2.5" style="stroke:#181818;stroke-width:0.5;" width="130.375" x="642.2236" y="50"/><text fill="#000000" font-family="sans-serif" font-size="14" lengthAdjust="spacing" textLength="116.375" x="649.2236" y="69.9951">FastAPI Backend</text></g><g class="participant participant-tail" data-participant="Backend"><rect fill="#E2E2F0" height="30.2969" rx="2.5" ry="2.5" style="stroke:#181818;stroke-width:0.5;" width="130.375" x="642.2236" y="2235.3984"/><text fill="#000000" font-family="sans-serif" font-size="14" lengthAdjust="spacing" textLength="116.375" x="649.2236" y="2255.3936">FastAPI Backend</text></g><g class="participant participant-head" data-participant="Auth"><rect fill="#E2E2F0" height="30.2969" rx="2.5" ry="2.5" style="stroke:#181818;stroke-width:0.5;" width="119.8613" x="862.5767" y="50"/><text fill="#000000" font-family="sans-serif" font-size="14" lengthAdjust="spacing" textLength="105.8613" x="869.5767" y="69.9951">Supabase Auth</text></g><g class="participant participant-tail" data-participant="Auth"><rect fill="#E2E2F0" height="30.2969" rx="2.5" ry="2.5" style="stroke:#181818;stroke-width:0.5;" width="119.8613" x="862.5767" y="2235.3984"/><text fill="#000000" font-family="sans-serif" font-size="14" lengthAdjust="spacing" textLength="105.8613" x="869.5767" y="2255.3936">Supabase Auth</text></g><g class="participant participant-head" data-participant="DB"><rect fill="#E2E2F0" height="30.2969" rx="2.5" ry="2.5" style="stroke:#181818;stroke-width:0.5;" width="107.4336" x="1058.2295" y="50"/><text fill="#000000" font-family="sans-serif" font-size="14" lengthAdjust="spacing" textLength="93.4336" x="1065.2295" y="69.9951">Supabase DB</text></g><g class="participant participant-tail" data-participant="DB"><rect fill="#E2E2F0" height="30.2969" rx="2.5" ry="2.5" style="stroke:#181818;stroke-width:0.5;" width="107.4336" x="1058.2295" y="2235.3984"/><text fill="#000000" font-family="sans-serif" font-size="14" lengthAdjust="spacing" textLength="93.4336" x="1065.2295" y="2255.3936">Supabase DB</text></g><g class="participant participant-head" data-participant="Storage"><rect fill="#E2E2F0" height="30.2969" rx="2.5" ry="2.5" style="stroke:#181818;stroke-width:0.5;" width="141.8252" x="1175.6631" y="50"/><text fill="#000000" font-family="sans-serif" font-size="14" lengthAdjust="spacing" textLength="127.8252" x="1182.6631" y="69.9951">Supabase Storage</text></g><g class="participant participant-tail" data-participant="Storage"><rect fill="#E2E2F0" height="30.2969" rx="2.5" ry="2.5" style="stroke:#181818;stroke-width:0.5;" width="141.8252" x="1175.6631" y="2235.3984"/><text fill="#000000" font-family="sans-serif" font-size="14" lengthAdjust="spacing" textLength="127.8252" x="1182.6631" y="2255.3936">Supabase Storage</text></g><g class="participant participant-head" data-participant="LC"><rect fill="#E2E2F0" height="30.2969" rx="2.5" ry="2.5" style="stroke:#181818;stroke-width:0.5;" width="86.0508" x="1358.8706" y="50"/><text fill="#000000" font-family="sans-serif" font-size="14" lengthAdjust="spacing" textLength="72.0508" x="1365.8706" y="69.9951">Langchain</text></g><g class="participant participant-tail" data-participant="LC"><rect fill="#E2E2F0" height="30.2969" rx="2.5" ry="2.5" style="stroke:#181818;stroke-width:0.5;" width="86.0508" x="1358.8706" y="2235.3984"/><text fill="#000000" font-family="sans-serif" font-size="14" lengthAdjust="spacing" textLength="72.0508" x="1365.8706" y="2255.3936">Langchain</text></g><g class="participant participant-head" data-participant="Gemini"><rect fill="#E2E2F0" height="30.2969" rx="2.5" ry="2.5" style="stroke:#181818;stroke-width:0.5;" width="81.9082" x="1630.3296" y="50"/><text fill="#000000" font-family="sans-serif" font-size="14" lengthAdjust="spacing" textLength="67.9082" x="1637.3296" y="69.9951">Gemini AI</text></g><g class="participant participant-tail" data-participant="Gemini"><rect fill="#E2E2F0" height="30.2969" rx="2.5" ry="2.5" style="stroke:#181818;stroke-width:0.5;" width="81.9082" x="1630.3296" y="2235.3984"/><text fill="#000000" font-family="sans-serif" font-size="14" lengthAdjust="spacing" textLength="67.9082" x="1637.3296" y="2255.3936">Gemini AI</text></g><rect fill="#EEEEEE" height="3" style="stroke:#EEEEEE;stroke-width:1;" width="1717.2378" x="0" y="111.8633"/><line style="stroke:#000000;stroke-width:1;" x1="0" x2="1717.2378" y1="111.8633" y2="111.8633"/><line style="stroke:#000000;stroke-width:1;" x1="0" x2="1717.2378" y1="114.8633" y2="114.8633"/><rect fill="#EEEEEE" height="23.1328" style="stroke:#000000;stroke-width:2;" width="379.3647" x="668.9365" y="101.2969"/><text fill="#000000" font-family="sans-serif" font-size="13" font-weight="bold" lengthAdjust="spacing" textLength="360.8389" x="674.9365" y="117.3638">User Information Collection (Required First Step)</text><g class="message" data-participant-1="User" data-participant-2="Frontend"><polygon fill="#181818" points="335.5522,151.5625,345.5522,155.5625,335.5522,159.5625,339.5522,155.5625" style="stroke:#181818;stroke-width:1;"/><line style="stroke:#181818;stroke-width:1;" x1="38.9551" x2="341.5522" y1="155.5625" y2="155.5625"/><text fill="#000000" font-family="sans-serif" font-size="13" lengthAdjust="spacing" textLength="116.8921" x="45.9551" y="150.4966">Visit landing page</text></g><g class="message" data-participant-1="Frontend" data-participant-2="User"><polygon fill="#181818" points="49.9551,180.6953,39.9551,184.6953,49.9551,188.6953,45.9551,184.6953" style="stroke:#181818;stroke-width:1;"/><line style="stroke:#181818;stroke-width:1;stroke-dasharray:2.0,2.0;" x1="43.9551" x2="346.5522" y1="184.6953" y2="184.6953"/><text fill="#000000" font-family="sans-serif" font-size="13" lengthAdjust="spacing" textLength="130.749" x="55.9551" y="179.6294">Show user info form</text></g><g class="message" data-participant-1="User" data-participant-2="Form"><polygon fill="#181818" points="461.5513,209.8281,471.5513,213.8281,461.5513,217.8281,465.5513,213.8281" style="stroke:#181818;stroke-width:1;"/><line style="stroke:#181818;stroke-width:1;" x1="38.9551" x2="467.5513" y1="213.8281" y2="213.8281"/><text fill="#000000" font-family="sans-serif" font-size="13" lengthAdjust="spacing" textLength="193.1274" x="45.9551" y="208.7622">Enter email, full name, phone</text></g><g class="message" data-participant-1="Form" data-participant-2="Form"><line style="stroke:#181818;stroke-width:1;" x1="473.5513" x2="515.5513" y1="242.9609" y2="242.9609"/><line style="stroke:#181818;stroke-width:1;" x1="515.5513" x2="515.5513" y1="242.9609" y2="255.9609"/><line style="stroke:#181818;stroke-width:1;" x1="474.5513" x2="515.5513" y1="255.9609" y2="255.9609"/><polygon fill="#181818" points="484.5513,251.9609,474.5513,255.9609,484.5513,259.9609,480.5513,255.9609" style="stroke:#181818;stroke-width:1;"/><text fill="#000000" font-family="sans-serif" font-size="13" lengthAdjust="spacing" textLength="137.0967" x="480.5513" y="237.895">Client-side validation</text></g><g class="message" data-participant-1="Form" data-participant-2="Backend"><polygon fill="#181818" points="695.4111,281.0938,705.4111,285.0938,695.4111,289.0938,699.4111,285.0938" style="stroke:#181818;stroke-width:1;"/><line style="stroke:#181818;stroke-width:1;" x1="473.5513" x2="701.4111" y1="285.0938" y2="285.0938"/><text fill="#000000" font-family="sans-serif" font-size="13" lengthAdjust="spacing" textLength="150.1411" x="480.5513" y="280.0278">POST /api/user/register</text></g><g class="message" data-participant-1="Backend" data-participant-2="Backend"><line style="stroke:#181818;stroke-width:1;" x1="707.4111" x2="749.4111" y1="314.2266" y2="314.2266"/><line style="stroke:#181818;stroke-width:1;" x1="749.4111" x2="749.4111" y1="314.2266" y2="327.2266"/><line style="stroke:#181818;stroke-width:1;" x1="708.4111" x2="749.4111" y1="327.2266" y2="327.2266"/><polygon fill="#181818" points="718.4111,323.2266,708.4111,327.2266,718.4111,331.2266,714.4111,327.2266" style="stroke:#181818;stroke-width:1;"/><text fill="#000000" font-family="sans-serif" font-size="13" lengthAdjust="spacing" textLength="119.2979" x="714.4111" y="309.1606">Validate user data</text></g><g class="message" data-participant-1="Backend" data-participant-2="Auth"><polygon fill="#181818" points="910.5073,352.3594,920.5073,356.3594,910.5073,360.3594,914.5073,356.3594" style="stroke:#181818;stroke-width:1;"/><line style="stroke:#181818;stroke-width:1;" x1="707.4111" x2="916.5073" y1="356.3594" y2="356.3594"/><text fill="#000000" font-family="sans-serif" font-size="13" lengthAdjust="spacing" textLength="160.9512" x="714.4111" y="351.2935">Create/find user account</text></g><g class="message" data-participant-1="Auth" data-participant-2="DB"><polygon fill="#181818" points="1099.9463,381.4922,1109.9463,385.4922,1099.9463,389.4922,1103.9463,385.4922" style="stroke:#181818;stroke-width:1;"/><line style="stroke:#181818;stroke-width:1;" x1="922.5073" x2="1105.9463" y1="385.4922" y2="385.4922"/><text fill="#000000" font-family="sans-serif" font-size="13" lengthAdjust="spacing" textLength="165.439" x="929.5073" y="380.4263">Insert/update user profile</text></g><g class="message" data-participant-1="DB" data-participant-2="Auth"><polygon fill="#181818" points="933.5073,410.625,923.5073,414.625,933.5073,418.625,929.5073,414.625" style="stroke:#181818;stroke-width:1;"/><line style="stroke:#181818;stroke-width:1;stroke-dasharray:2.0,2.0;" x1="927.5073" x2="1110.9463" y1="414.625" y2="414.625"/><text fill="#000000" font-family="sans-serif" font-size="13" lengthAdjust="spacing" textLength="129.0479" x="939.5073" y="409.5591">User profile created</text></g><g class="message" data-participant-1="Auth" data-participant-2="Backend"><polygon fill="#181818" points="718.4111,439.7578,708.4111,443.7578,718.4111,447.7578,714.4111,443.7578" style="stroke:#181818;stroke-width:1;"/><line style="stroke:#181818;stroke-width:1;stroke-dasharray:2.0,2.0;" x1="712.4111" x2="921.5073" y1="443.7578" y2="443.7578"/><text fill="#000000" font-family="sans-serif" font-size="13" lengthAdjust="spacing" textLength="122.8335" x="724.4111" y="438.6919">User session token</text></g><g class="message" data-participant-1="Backend" data-participant-2="DB"><polygon fill="#181818" points="1099.9463,468.8906,1109.9463,472.8906,1099.9463,476.8906,1103.9463,472.8906" style="stroke:#181818;stroke-width:1;"/><line style="stroke:#181818;stroke-width:1;" x1="707.4111" x2="1105.9463" y1="472.8906" y2="472.8906"/><text fill="#000000" font-family="sans-serif" font-size="13" lengthAdjust="spacing" textLength="178.9404" x="714.4111" y="467.8247">Initialize rate limits for user</text></g><g class="message" data-participant-1="DB" data-participant-2="Backend"><polygon fill="#181818" points="718.4111,498.0234,708.4111,502.0234,718.4111,506.0234,714.4111,502.0234" style="stroke:#181818;stroke-width:1;"/><line style="stroke:#181818;stroke-width:1;stroke-dasharray:2.0,2.0;" x1="712.4111" x2="1110.9463" y1="502.0234" y2="502.0234"/><text fill="#000000" font-family="sans-serif" font-size="13" lengthAdjust="spacing" textLength="162.9316" x="724.4111" y="496.9575">Rate limit record created</text></g><g class="message" data-participant-1="Backend" data-participant-2="Form"><polygon fill="#181818" points="484.5513,527.1563,474.5513,531.1563,484.5513,535.1563,480.5513,531.1563" style="stroke:#181818;stroke-width:1;"/><line style="stroke:#181818;stroke-width:1;stroke-dasharray:2.0,2.0;" x1="478.5513" x2="706.4111" y1="531.1563" y2="531.1563"/><text fill="#000000" font-family="sans-serif" font-size="13" lengthAdjust="spacing" textLength="189.9346" x="490.5513" y="526.0903">Registration success + token</text></g><g class="message" data-participant-1="Form" data-participant-2="User"><polygon fill="#181818" points="49.9551,556.2891,39.9551,560.2891,49.9551,564.2891,45.9551,560.2891" style="stroke:#181818;stroke-width:1;"/><line style="stroke:#181818;stroke-width:1;stroke-dasharray:2.0,2.0;" x1="43.9551" x2="472.5513" y1="560.2891" y2="560.2891"/><text fill="#000000" font-family="sans-serif" font-size="13" lengthAdjust="spacing" textLength="199.5894" x="55.9551" y="555.2231">Show success &amp; unlock upload</text></g><rect fill="#EEEEEE" height="3" style="stroke:#EEEEEE;stroke-width:1;" width="1717.2378" x="0" y="588.8555"/><line style="stroke:#000000;stroke-width:1;" x1="0" x2="1717.2378" y1="588.8555" y2="588.8555"/><line style="stroke:#000000;stroke-width:1;" x1="0" x2="1717.2378" y1="591.8555" y2="591.8555"/><rect fill="#EEEEEE" height="23.1328" style="stroke:#000000;stroke-width:2;" width="142.3115" x="787.4631" y="578.2891"/><text fill="#000000" font-family="sans-serif" font-size="13" font-weight="bold" lengthAdjust="spacing" textLength="123.7856" x="793.4631" y="594.356">Rate Limit Check</text><g class="message" data-participant-1="Form" data-participant-2="Backend"><polygon fill="#181818" points="695.4111,628.5547,705.4111,632.5547,695.4111,636.5547,699.4111,632.5547" style="stroke:#181818;stroke-width:1;"/><line style="stroke:#181818;stroke-width:1;" x1="473.5513" x2="701.4111" y1="632.5547" y2="632.5547"/><text fill="#000000" font-family="sans-serif" font-size="13" lengthAdjust="spacing" textLength="209.8599" x="480.5513" y="627.4888">GET /api/user/limits (with token)</text></g><g class="message" data-participant-1="Backend" data-participant-2="Auth"><polygon fill="#181818" points="910.5073,657.6875,920.5073,661.6875,910.5073,665.6875,914.5073,661.6875" style="stroke:#181818;stroke-width:1;"/><line style="stroke:#181818;stroke-width:1;" x1="707.4111" x2="916.5073" y1="661.6875" y2="661.6875"/><text fill="#000000" font-family="sans-serif" font-size="13" lengthAdjust="spacing" textLength="146.5991" x="714.4111" y="656.6216">Validate session token</text></g><g class="message" data-participant-1="Auth" data-participant-2="Backend"><polygon fill="#181818" points="718.4111,686.8203,708.4111,690.8203,718.4111,694.8203,714.4111,690.8203" style="stroke:#181818;stroke-width:1;"/><line style="stroke:#181818;stroke-width:1;stroke-dasharray:2.0,2.0;" x1="712.4111" x2="921.5073" y1="690.8203" y2="690.8203"/><text fill="#000000" font-family="sans-serif" font-size="13" lengthAdjust="spacing" textLength="94.2119" x="724.4111" y="685.7544">User validated</text></g><g class="message" data-participant-1="Backend" data-participant-2="DB"><polygon fill="#181818" points="1099.9463,715.9531,1109.9463,719.9531,1099.9463,723.9531,1103.9463,719.9531" style="stroke:#181818;stroke-width:1;"/><line style="stroke:#181818;stroke-width:1;" x1="707.4111" x2="1105.9463" y1="719.9531" y2="719.9531"/><text fill="#000000" font-family="sans-serif" font-size="13" lengthAdjust="spacing" textLength="187.1606" x="714.4111" y="714.8872">Check weekly analysis count</text></g><path d="M10,734.9531 L74.4429,734.9531 L74.4429,742.0859 L64.4429,752.0859 L10,752.0859 L10,734.9531" fill="#EEEEEE" style="stroke:#000000;stroke-width:1.5;"/><rect fill="none" height="206.7344" style="stroke:#000000;stroke-width:1.5;" width="1165.6631" x="10" y="734.9531"/><text fill="#000000" font-family="sans-serif" font-size="13" font-weight="bold" lengthAdjust="spacing" textLength="19.4429" x="25" y="748.02">alt</text><text fill="#000000" font-family="sans-serif" font-size="11" font-weight="bold" lengthAdjust="spacing" textLength="133.563" x="89.4429" y="747.1636">[Rate limit exceeded]</text><g class="message" data-participant-1="DB" data-participant-2="Backend"><polygon fill="#181818" points="718.4111,769.2188,708.4111,773.2188,718.4111,777.2188,714.4111,773.2188" style="stroke:#181818;stroke-width:1;"/><line style="stroke:#181818;stroke-width:1;stroke-dasharray:2.0,2.0;" x1="712.4111" x2="1110.9463" y1="773.2188" y2="773.2188"/><text fill="#000000" font-family="sans-serif" font-size="13" lengthAdjust="spacing" textLength="160.7798" x="724.4111" y="768.1528">Limit exceeded (1/week)</text></g><g class="message" data-participant-1="Backend" data-participant-2="Form"><polygon fill="#181818" points="484.5513,798.3516,474.5513,802.3516,484.5513,806.3516,480.5513,802.3516" style="stroke:#181818;stroke-width:1;"/><line style="stroke:#181818;stroke-width:1;stroke-dasharray:2.0,2.0;" x1="478.5513" x2="706.4111" y1="802.3516" y2="802.3516"/><text fill="#000000" font-family="sans-serif" font-size="13" lengthAdjust="spacing" textLength="178.2041" x="490.5513" y="797.2856">Error: Weekly limit reached</text></g><g class="message" data-participant-1="Form" data-participant-2="User"><polygon fill="#181818" points="49.9551,827.4844,39.9551,831.4844,49.9551,835.4844,45.9551,831.4844" style="stroke:#181818;stroke-width:1;"/><line style="stroke:#181818;stroke-width:1;stroke-dasharray:2.0,2.0;" x1="43.9551" x2="472.5513" y1="831.4844" y2="831.4844"/><text fill="#000000" font-family="sans-serif" font-size="13" lengthAdjust="spacing" textLength="213.7192" x="55.9551" y="826.4185">Show error message + wait time</text></g><line style="stroke:#000000;stroke-width:1;stroke-dasharray:2.0,2.0;" x1="10" x2="1175.6631" y1="840.4844" y2="840.4844"/><text fill="#000000" font-family="sans-serif" font-size="11" font-weight="bold" lengthAdjust="spacing" textLength="92.2324" x="15" y="850.6948">[Rate limit OK]</text><g class="message" data-participant-1="DB" data-participant-2="Backend"><polygon fill="#181818" points="718.4111,871.4219,708.4111,875.4219,718.4111,879.4219,714.4111,875.4219" style="stroke:#181818;stroke-width:1;"/><line style="stroke:#181818;stroke-width:1;stroke-dasharray:2.0,2.0;" x1="712.4111" x2="1110.9463" y1="875.4219" y2="875.4219"/><text fill="#000000" font-family="sans-serif" font-size="13" lengthAdjust="spacing" textLength="107.7197" x="724.4111" y="870.356">Analysis allowed</text></g><g class="message" data-participant-1="Backend" data-participant-2="Form"><polygon fill="#181818" points="484.5513,900.5547,474.5513,904.5547,484.5513,908.5547,480.5513,904.5547" style="stroke:#181818;stroke-width:1;"/><line style="stroke:#181818;stroke-width:1;stroke-dasharray:2.0,2.0;" x1="478.5513" x2="706.4111" y1="904.5547" y2="904.5547"/><text fill="#000000" font-family="sans-serif" font-size="13" lengthAdjust="spacing" textLength="148.77" x="490.5513" y="899.4888">Upload access granted</text></g><g class="message" data-participant-1="Form" data-participant-2="User"><polygon fill="#181818" points="49.9551,929.6875,39.9551,933.6875,49.9551,937.6875,45.9551,933.6875" style="stroke:#181818;stroke-width:1;"/><line style="stroke:#181818;stroke-width:1;stroke-dasharray:2.0,2.0;" x1="43.9551" x2="472.5513" y1="933.6875" y2="933.6875"/><text fill="#000000" font-family="sans-serif" font-size="13" lengthAdjust="spacing" textLength="169.5269" x="55.9551" y="928.6216">Show file upload interface</text></g><rect fill="#EEEEEE" height="3" style="stroke:#EEEEEE;stroke-width:1;" width="1717.2378" x="0" y="969.2539"/><line style="stroke:#000000;stroke-width:1;" x1="0" x2="1717.2378" y1="969.2539" y2="969.2539"/><line style="stroke:#000000;stroke-width:1;" x1="0" x2="1717.2378" y1="972.2539" y2="972.2539"/><rect fill="#EEEEEE" height="23.1328" style="stroke:#000000;stroke-width:2;" width="162.3828" x="777.4275" y="958.6875"/><text fill="#000000" font-family="sans-serif" font-size="13" font-weight="bold" lengthAdjust="spacing" textLength="143.8569" x="783.4275" y="974.7544">File Upload Process</text><g class="message" data-participant-1="User" data-participant-2="Frontend"><polygon fill="#181818" points="335.5522,1024.0859,345.5522,1028.0859,335.5522,1032.0859,339.5522,1028.0859" style="stroke:#181818;stroke-width:1;"/><line style="stroke:#181818;stroke-width:1;" x1="38.9551" x2="341.5522" y1="1028.0859" y2="1028.0859"/><text fill="#000000" font-family="sans-serif" font-size="13" lengthAdjust="spacing" textLength="110.481" x="45.9551" y="1007.8872">Drag &amp; drop files</text><text fill="#000000" font-family="sans-serif" font-size="13" lengthAdjust="spacing" textLength="133.7515" x="45.9551" y="1023.02">(Job desc + 3-5 CVs)</text></g><g class="message" data-participant-1="Frontend" data-participant-2="Backend"><polygon fill="#181818" points="695.4111,1068.3516,705.4111,1072.3516,695.4111,1076.3516,699.4111,1072.3516" style="stroke:#181818;stroke-width:1;"/><line style="stroke:#181818;stroke-width:1;" x1="347.5522" x2="701.4111" y1="1072.3516" y2="1072.3516"/><text fill="#000000" font-family="sans-serif" font-size="13" lengthAdjust="spacing" textLength="111.2617" x="354.5522" y="1052.1528">POST /api/upload</text><text fill="#000000" font-family="sans-serif" font-size="13" lengthAdjust="spacing" textLength="112.3472" x="354.5522" y="1067.2856">(with auth token)</text></g><g class="message" data-participant-1="Backend" data-participant-2="Auth"><polygon fill="#181818" points="910.5073,1097.4844,920.5073,1101.4844,910.5073,1105.4844,914.5073,1101.4844" style="stroke:#181818;stroke-width:1;"/><line style="stroke:#181818;stroke-width:1;" x1="707.4111" x2="916.5073" y1="1101.4844" y2="1101.4844"/><text fill="#000000" font-family="sans-serif" font-size="13" lengthAdjust="spacing" textLength="146.5991" x="714.4111" y="1096.4185">Validate session token</text></g><g class="message" data-participant-1="Backend" data-participant-2="Storage"><polygon fill="#181818" points="1234.5757,1126.6172,1244.5757,1130.6172,1234.5757,1134.6172,1238.5757,1130.6172" style="stroke:#181818;stroke-width:1;"/><line style="stroke:#181818;stroke-width:1;" x1="707.4111" x2="1240.5757" y1="1130.6172" y2="1130.6172"/><text fill="#000000" font-family="sans-serif" font-size="13" lengthAdjust="spacing" textLength="174.3193" x="714.4111" y="1125.5513">Upload files to user bucket</text></g><g class="message" data-participant-1="Storage" data-participant-2="Backend"><polygon fill="#181818" points="718.4111,1155.75,708.4111,1159.75,718.4111,1163.75,714.4111,1159.75" style="stroke:#181818;stroke-width:1;"/><line style="stroke:#181818;stroke-width:1;stroke-dasharray:2.0,2.0;" x1="712.4111" x2="1245.5757" y1="1159.75" y2="1159.75"/><text fill="#000000" font-family="sans-serif" font-size="13" lengthAdjust="spacing" textLength="140.8037" x="724.4111" y="1154.6841">File URLs &amp; metadata</text></g><g class="message" data-participant-1="Backend" data-participant-2="DB"><polygon fill="#181818" points="1099.9463,1184.8828,1109.9463,1188.8828,1099.9463,1192.8828,1103.9463,1188.8828" style="stroke:#181818;stroke-width:1;"/><line style="stroke:#181818;stroke-width:1;" x1="707.4111" x2="1105.9463" y1="1188.8828" y2="1188.8828"/><text fill="#000000" font-family="sans-serif" font-size="13" lengthAdjust="spacing" textLength="146.4214" x="714.4111" y="1183.8169">Create analysis record</text></g><g class="message" data-participant-1="DB" data-participant-2="Backend"><polygon fill="#181818" points="718.4111,1214.0156,708.4111,1218.0156,718.4111,1222.0156,714.4111,1218.0156" style="stroke:#181818;stroke-width:1;"/><line style="stroke:#181818;stroke-width:1;stroke-dasharray:2.0,2.0;" x1="712.4111" x2="1110.9463" y1="1218.0156" y2="1218.0156"/><text fill="#000000" font-family="sans-serif" font-size="13" lengthAdjust="spacing" textLength="71.5381" x="724.4111" y="1212.9497">Analysis ID</text></g><g class="message" data-participant-1="Backend" data-participant-2="Frontend"><polygon fill="#181818" points="358.5522,1243.1484,348.5522,1247.1484,358.5522,1251.1484,354.5522,1247.1484" style="stroke:#181818;stroke-width:1;"/><line style="stroke:#181818;stroke-width:1;stroke-dasharray:2.0,2.0;" x1="352.5522" x2="706.4111" y1="1247.1484" y2="1247.1484"/><text fill="#000000" font-family="sans-serif" font-size="13" lengthAdjust="spacing" textLength="191.2295" x="364.5522" y="1242.0825">Upload success + Analysis ID</text></g><g class="message" data-participant-1="Frontend" data-participant-2="User"><polygon fill="#181818" points="49.9551,1272.2813,39.9551,1276.2813,49.9551,1280.2813,45.9551,1276.2813" style="stroke:#181818;stroke-width:1;"/><line style="stroke:#181818;stroke-width:1;stroke-dasharray:2.0,2.0;" x1="43.9551" x2="346.5522" y1="1276.2813" y2="1276.2813"/><text fill="#000000" font-family="sans-serif" font-size="13" lengthAdjust="spacing" textLength="156.4951" x="55.9551" y="1271.2153">Show progress bar (0%)</text></g><rect fill="#EEEEEE" height="3" style="stroke:#EEEEEE;stroke-width:1;" width="1717.2378" x="0" y="1304.8477"/><line style="stroke:#000000;stroke-width:1;" x1="0" x2="1717.2378" y1="1304.8477" y2="1304.8477"/><line style="stroke:#000000;stroke-width:1;" x1="0" x2="1717.2378" y1="1307.8477" y2="1307.8477"/><rect fill="#EEEEEE" height="23.1328" style="stroke:#000000;stroke-width:2;" width="140.8706" x="788.1836" y="1294.2813"/><text fill="#000000" font-family="sans-serif" font-size="13" font-weight="bold" lengthAdjust="spacing" textLength="122.3447" x="794.1836" y="1310.3481">Analysis Process</text><g class="message" data-participant-1="Backend" data-participant-2="Backend"><line style="stroke:#181818;stroke-width:1;" x1="707.4111" x2="749.4111" y1="1348.5469" y2="1348.5469"/><line style="stroke:#181818;stroke-width:1;" x1="749.4111" x2="749.4111" y1="1348.5469" y2="1361.5469"/><line style="stroke:#181818;stroke-width:1;" x1="708.4111" x2="749.4111" y1="1361.5469" y2="1361.5469"/><polygon fill="#181818" points="718.4111,1357.5469,708.4111,1361.5469,718.4111,1365.5469,714.4111,1361.5469" style="stroke:#181818;stroke-width:1;"/><text fill="#000000" font-family="sans-serif" font-size="13" lengthAdjust="spacing" textLength="123.4238" x="714.4111" y="1343.481">Queue analysis job</text></g><g class="message" data-participant-1="Frontend" data-participant-2="User"><polygon fill="#181818" points="49.9551,1386.6797,39.9551,1390.6797,49.9551,1394.6797,45.9551,1390.6797" style="stroke:#181818;stroke-width:1;"/><line style="stroke:#181818;stroke-width:1;" x1="43.9551" x2="346.5522" y1="1390.6797" y2="1390.6797"/><text fill="#000000" font-family="sans-serif" font-size="13" lengthAdjust="spacing" textLength="264.6655" x="55.9551" y="1385.6138">Update progress (25% - Processing files)</text></g><g class="message" data-participant-1="Backend" data-participant-2="LC"><polygon fill="#181818" points="1389.896,1415.8125,1399.896,1419.8125,1389.896,1423.8125,1393.896,1419.8125" style="stroke:#181818;stroke-width:1;"/><line style="stroke:#181818;stroke-width:1;" x1="707.4111" x2="1395.896" y1="1419.8125" y2="1419.8125"/><text fill="#000000" font-family="sans-serif" font-size="13" lengthAdjust="spacing" textLength="198.5737" x="714.4111" y="1414.7466">Initialize document processors</text></g><g class="message" data-participant-1="LC" data-participant-2="Storage"><polygon fill="#181818" points="1257.5757,1444.9453,1247.5757,1448.9453,1257.5757,1452.9453,1253.5757,1448.9453" style="stroke:#181818;stroke-width:1;"/><line style="stroke:#181818;stroke-width:1;" x1="1251.5757" x2="1400.896" y1="1448.9453" y2="1448.9453"/><text fill="#000000" font-family="sans-serif" font-size="13" lengthAdjust="spacing" textLength="131.3203" x="1263.5757" y="1443.8794">Fetch uploaded files</text></g><g class="message" data-participant-1="Storage" data-participant-2="LC"><polygon fill="#181818" points="1389.896,1474.0781,1399.896,1478.0781,1389.896,1482.0781,1393.896,1478.0781" style="stroke:#181818;stroke-width:1;"/><line style="stroke:#181818;stroke-width:1;stroke-dasharray:2.0,2.0;" x1="1246.5757" x2="1395.896" y1="1478.0781" y2="1478.0781"/><text fill="#000000" font-family="sans-serif" font-size="13" lengthAdjust="spacing" textLength="129.7524" x="1253.5757" y="1473.0122">File contents (PDFs)</text></g><g class="message" data-participant-1="Frontend" data-participant-2="User"><polygon fill="#181818" points="49.9551,1503.2109,39.9551,1507.2109,49.9551,1511.2109,45.9551,1507.2109" style="stroke:#181818;stroke-width:1;"/><line style="stroke:#181818;stroke-width:1;" x1="43.9551" x2="346.5522" y1="1507.2109" y2="1507.2109"/><text fill="#000000" font-family="sans-serif" font-size="13" lengthAdjust="spacing" textLength="284.5972" x="55.9551" y="1502.145">Update progress (50% - Extracting content)</text></g><g class="message" data-participant-1="LC" data-participant-2="LC"><line style="stroke:#181818;stroke-width:1;" x1="1401.896" x2="1443.896" y1="1536.3438" y2="1536.3438"/><line style="stroke:#181818;stroke-width:1;" x1="1443.896" x2="1443.896" y1="1536.3438" y2="1549.3438"/><line style="stroke:#181818;stroke-width:1;" x1="1402.896" x2="1443.896" y1="1549.3438" y2="1549.3438"/><polygon fill="#181818" points="1412.896,1545.3438,1402.896,1549.3438,1412.896,1553.3438,1408.896,1549.3438" style="stroke:#181818;stroke-width:1;"/><text fill="#000000" font-family="sans-serif" font-size="13" lengthAdjust="spacing" textLength="141.8765" x="1408.896" y="1531.2778">Parse PDF documents</text></g><g class="message" data-participant-1="LC" data-participant-2="LC"><line style="stroke:#181818;stroke-width:1;" x1="1401.896" x2="1443.896" y1="1578.4766" y2="1578.4766"/><line style="stroke:#181818;stroke-width:1;" x1="1443.896" x2="1443.896" y1="1578.4766" y2="1591.4766"/><line style="stroke:#181818;stroke-width:1;" x1="1402.896" x2="1443.896" y1="1591.4766" y2="1591.4766"/><polygon fill="#181818" points="1412.896,1587.4766,1402.896,1591.4766,1412.896,1595.4766,1408.896,1591.4766" style="stroke:#181818;stroke-width:1;"/><text fill="#000000" font-family="sans-serif" font-size="13" lengthAdjust="spacing" textLength="154.2607" x="1408.896" y="1573.4106">Extract text &amp; structure</text></g><g class="message" data-participant-1="Frontend" data-participant-2="User"><polygon fill="#181818" points="49.9551,1616.6094,39.9551,1620.6094,49.9551,1624.6094,45.9551,1620.6094" style="stroke:#181818;stroke-width:1;"/><line style="stroke:#181818;stroke-width:1;" x1="43.9551" x2="346.5522" y1="1620.6094" y2="1620.6094"/><text fill="#000000" font-family="sans-serif" font-size="13" lengthAdjust="spacing" textLength="234.4507" x="55.9551" y="1615.5435">Update progress (75% - AI Analysis)</text></g><g class="message" data-participant-1="LC" data-participant-2="Gemini"><polygon fill="#181818" points="1659.2837,1660.875,1669.2837,1664.875,1659.2837,1668.875,1663.2837,1664.875" style="stroke:#181818;stroke-width:1;"/><line style="stroke:#181818;stroke-width:1;" x1="1401.896" x2="1665.2837" y1="1664.875" y2="1664.875"/><text fill="#000000" font-family="sans-serif" font-size="13" lengthAdjust="spacing" textLength="245.3877" x="1408.896" y="1644.6763">Analyze resumes vs job requirements</text><text fill="#000000" font-family="sans-serif" font-size="13" lengthAdjust="spacing" textLength="128.7432" x="1408.896" y="1659.8091">(Langchain prompt)</text></g><g class="message" data-participant-1="Gemini" data-participant-2="LC"><polygon fill="#181818" points="1412.896,1690.0078,1402.896,1694.0078,1412.896,1698.0078,1408.896,1694.0078" style="stroke:#181818;stroke-width:1;"/><line style="stroke:#181818;stroke-width:1;stroke-dasharray:2.0,2.0;" x1="1406.896" x2="1670.2837" y1="1694.0078" y2="1694.0078"/><text fill="#000000" font-family="sans-serif" font-size="13" lengthAdjust="spacing" textLength="117.4634" x="1418.896" y="1688.9419">AI analysis results</text></g><g class="message" data-participant-1="LC" data-participant-2="Backend"><polygon fill="#181818" points="718.4111,1719.1406,708.4111,1723.1406,718.4111,1727.1406,714.4111,1723.1406" style="stroke:#181818;stroke-width:1;"/><line style="stroke:#181818;stroke-width:1;stroke-dasharray:2.0,2.0;" x1="712.4111" x2="1400.896" y1="1723.1406" y2="1723.1406"/><text fill="#000000" font-family="sans-serif" font-size="13" lengthAdjust="spacing" textLength="159.1929" x="724.4111" y="1718.0747">Structured analysis data</text></g><g class="message" data-participant-1="Backend" data-participant-2="DB"><polygon fill="#181818" points="1099.9463,1748.2734,1109.9463,1752.2734,1099.9463,1756.2734,1103.9463,1752.2734" style="stroke:#181818;stroke-width:1;"/><line style="stroke:#181818;stroke-width:1;" x1="707.4111" x2="1105.9463" y1="1752.2734" y2="1752.2734"/><text fill="#000000" font-family="sans-serif" font-size="13" lengthAdjust="spacing" textLength="183.5298" x="714.4111" y="1747.2075">Update analysis with results</text></g><g class="message" data-participant-1="DB" data-participant-2="Backend"><polygon fill="#181818" points="718.4111,1777.4063,708.4111,1781.4063,718.4111,1785.4063,714.4111,1781.4063" style="stroke:#181818;stroke-width:1;"/><line style="stroke:#181818;stroke-width:1;stroke-dasharray:2.0,2.0;" x1="712.4111" x2="1110.9463" y1="1781.4063" y2="1781.4063"/><text fill="#000000" font-family="sans-serif" font-size="13" lengthAdjust="spacing" textLength="126.6675" x="724.4111" y="1776.3403">Analysis completed</text></g><g class="message" data-participant-1="Backend" data-participant-2="DB"><polygon fill="#181818" points="1099.9463,1806.5391,1109.9463,1810.5391,1099.9463,1814.5391,1103.9463,1810.5391" style="stroke:#181818;stroke-width:1;"/><line style="stroke:#181818;stroke-width:1;" x1="707.4111" x2="1105.9463" y1="1810.5391" y2="1810.5391"/><text fill="#000000" font-family="sans-serif" font-size="13" lengthAdjust="spacing" textLength="149.6079" x="714.4111" y="1805.4731">Update user rate limits</text></g><g class="message" data-participant-1="DB" data-participant-2="Backend"><polygon fill="#181818" points="718.4111,1835.6719,708.4111,1839.6719,718.4111,1843.6719,714.4111,1839.6719" style="stroke:#181818;stroke-width:1;"/><line style="stroke:#181818;stroke-width:1;stroke-dasharray:2.0,2.0;" x1="712.4111" x2="1110.9463" y1="1839.6719" y2="1839.6719"/><text fill="#000000" font-family="sans-serif" font-size="13" lengthAdjust="spacing" textLength="121.0117" x="724.4111" y="1834.606">Rate limit updated</text></g><g class="message" data-participant-1="Frontend" data-participant-2="User"><polygon fill="#181818" points="49.9551,1864.8047,39.9551,1868.8047,49.9551,1872.8047,45.9551,1868.8047" style="stroke:#181818;stroke-width:1;"/><line style="stroke:#181818;stroke-width:1;" x1="43.9551" x2="346.5522" y1="1868.8047" y2="1868.8047"/><text fill="#000000" font-family="sans-serif" font-size="13" lengthAdjust="spacing" textLength="234.9521" x="55.9551" y="1863.7388">Update progress (100% - Complete)</text></g><g class="message" data-participant-1="Backend" data-participant-2="Frontend"><polygon fill="#181818" points="358.5522,1893.9375,348.5522,1897.9375,358.5522,1901.9375,354.5522,1897.9375" style="stroke:#181818;stroke-width:1;"/><line style="stroke:#181818;stroke-width:1;stroke-dasharray:2.0,2.0;" x1="352.5522" x2="706.4111" y1="1897.9375" y2="1897.9375"/><text fill="#000000" font-family="sans-serif" font-size="13" lengthAdjust="spacing" textLength="195.6538" x="364.5522" y="1892.8716">Analysis complete notification</text></g><g class="message" data-participant-1="Frontend" data-participant-2="User"><polygon fill="#181818" points="49.9551,1923.0703,39.9551,1927.0703,49.9551,1931.0703,45.9551,1927.0703" style="stroke:#181818;stroke-width:1;"/><line style="stroke:#181818;stroke-width:1;stroke-dasharray:2.0,2.0;" x1="43.9551" x2="346.5522" y1="1927.0703" y2="1927.0703"/><text fill="#000000" font-family="sans-serif" font-size="13" lengthAdjust="spacing" textLength="180.9717" x="55.9551" y="1922.0044">Show "View Results" button</text></g><rect fill="#EEEEEE" height="3" style="stroke:#EEEEEE;stroke-width:1;" width="1717.2378" x="0" y="1955.6367"/><line style="stroke:#000000;stroke-width:1;" x1="0" x2="1717.2378" y1="1955.6367" y2="1955.6367"/><line style="stroke:#000000;stroke-width:1;" x1="0" x2="1717.2378" y1="1958.6367" y2="1958.6367"/><rect fill="#EEEEEE" height="23.1328" style="stroke:#000000;stroke-width:2;" width="131.2729" x="792.9824" y="1945.0703"/><text fill="#000000" font-family="sans-serif" font-size="13" font-weight="bold" lengthAdjust="spacing" textLength="112.7471" x="798.9824" y="1961.1372">Results Display</text><g class="message" data-participant-1="User" data-participant-2="Frontend"><polygon fill="#181818" points="335.5522,1995.3359,345.5522,1999.3359,335.5522,2003.3359,339.5522,1999.3359" style="stroke:#181818;stroke-width:1;"/><line style="stroke:#181818;stroke-width:1;" x1="38.9551" x2="341.5522" y1="1999.3359" y2="1999.3359"/><text fill="#000000" font-family="sans-serif" font-size="13" lengthAdjust="spacing" textLength="129.8604" x="45.9551" y="1994.27">Click "View Results"</text></g><g class="message" data-participant-1="Frontend" data-participant-2="Backend"><polygon fill="#181818" points="695.4111,2024.4688,705.4111,2028.4688,695.4111,2032.4688,699.4111,2028.4688" style="stroke:#181818;stroke-width:1;"/><line style="stroke:#181818;stroke-width:1;" x1="347.5522" x2="701.4111" y1="2028.4688" y2="2028.4688"/><text fill="#000000" font-family="sans-serif" font-size="13" lengthAdjust="spacing" textLength="144.3711" x="354.5522" y="2023.4028">GET /api/analysis/{id}</text></g><g class="message" data-participant-1="Backend" data-participant-2="Auth"><polygon fill="#181818" points="910.5073,2053.6016,920.5073,2057.6016,910.5073,2061.6016,914.5073,2057.6016" style="stroke:#181818;stroke-width:1;"/><line style="stroke:#181818;stroke-width:1;" x1="707.4111" x2="916.5073" y1="2057.6016" y2="2057.6016"/><text fill="#000000" font-family="sans-serif" font-size="13" lengthAdjust="spacing" textLength="191.0962" x="714.4111" y="2052.5356">Validate session &amp; ownership</text></g><g class="message" data-participant-1="Auth" data-participant-2="Backend"><polygon fill="#181818" points="718.4111,2082.7344,708.4111,2086.7344,718.4111,2090.7344,714.4111,2086.7344" style="stroke:#181818;stroke-width:1;"/><line style="stroke:#181818;stroke-width:1;stroke-dasharray:2.0,2.0;" x1="712.4111" x2="921.5073" y1="2086.7344" y2="2086.7344"/><text fill="#000000" font-family="sans-serif" font-size="13" lengthAdjust="spacing" textLength="100.0137" x="724.4111" y="2081.6685">Access granted</text></g><g class="message" data-participant-1="Backend" data-participant-2="DB"><polygon fill="#181818" points="1099.9463,2111.8672,1109.9463,2115.8672,1099.9463,2119.8672,1103.9463,2115.8672" style="stroke:#181818;stroke-width:1;"/><line style="stroke:#181818;stroke-width:1;" x1="707.4111" x2="1105.9463" y1="2115.8672" y2="2115.8672"/><text fill="#000000" font-family="sans-serif" font-size="13" lengthAdjust="spacing" textLength="140.6958" x="714.4111" y="2110.8013">Fetch analysis results</text></g><g class="message" data-participant-1="DB" data-participant-2="Backend"><polygon fill="#181818" points="718.4111,2141,708.4111,2145,718.4111,2149,714.4111,2145" style="stroke:#181818;stroke-width:1;"/><line style="stroke:#181818;stroke-width:1;stroke-dasharray:2.0,2.0;" x1="712.4111" x2="1110.9463" y1="2145" y2="2145"/><text fill="#000000" font-family="sans-serif" font-size="13" lengthAdjust="spacing" textLength="104.1714" x="724.4111" y="2139.9341">Dashboard data</text></g><g class="message" data-participant-1="Backend" data-participant-2="Frontend"><polygon fill="#181818" points="358.5522,2170.1328,348.5522,2174.1328,358.5522,2178.1328,354.5522,2174.1328" style="stroke:#181818;stroke-width:1;"/><line style="stroke:#181818;stroke-width:1;stroke-dasharray:2.0,2.0;" x1="352.5522" x2="706.4111" y1="2174.1328" y2="2174.1328"/><text fill="#000000" font-family="sans-serif" font-size="13" lengthAdjust="spacing" textLength="101.5308" x="364.5522" y="2169.0669">Analysis results</text></g><g class="message" data-participant-1="Frontend" data-participant-2="User"><polygon fill="#181818" points="49.9551,2214.3984,39.9551,2218.3984,49.9551,2222.3984,45.9551,2218.3984" style="stroke:#181818;stroke-width:1;"/><line style="stroke:#181818;stroke-width:1;stroke-dasharray:2.0,2.0;" x1="43.9551" x2="346.5522" y1="2218.3984" y2="2218.3984"/><text fill="#000000" font-family="sans-serif" font-size="13" lengthAdjust="spacing" textLength="177.8169" x="55.9551" y="2198.1997">Display analysis dashboard</text><text fill="#000000" font-family="sans-serif" font-size="13" lengthAdjust="spacing" textLength="203.417" x="55.9551" y="2213.3325">(Scores, comparisons, insights)</text></g><!--SRC=[bLPDR-Cs4BthLmm2R62ZCPnj4HG8a0B-Y1TfZMusRj9BBpH5ssmeKYMfTTAY_ts7GqgMOhb8RvBu-6RutinGZ7jZuT49cvNCUibboRI7ir-h5myBQxGNEZy3vfgNBYxiX3kzCR0mjeX0VEY25ipvoVqTJ1b_hkdISnUugagsPax0fF8xWeM74vZvb13pwOdr5PwCRGM1qdCNkMHwotTCQe8iPztLJwAGMiBaZbRZMvRTt41pP5imBus6cL5AS7eSF8Y_Acb53WjfdSUueXp2pKr6cqO_DIfUmvDqqeDYEfTw2sN8hbw44IB3ZcjOxSmUgh1P1f53q0CNlbp3BMwn80ecrGLiAgL0iq9SGBap6YaHSy3Eb1JQZvpC1NnbIkPqW0QKFBc6-y-hts3CIZaEeSTMRAN3A5a2TB1FaKV4BF69jM71Funh1IB66uaV2SOuDvNsMLWEiFdq6YN55J-koWDRQSr6Af7DfoH997jihG0dvZmHjVCYc1FE1L-ymO_jl690wILc_xS06q8gMKZlWiOKlOxQC3uq8B226vitqHlYHka7aip60d4LvvW8V9VoY7ftFQunvr1fPVWpLAKoBAUAey1B2ZpR2Lp3WZhoxDDjsx9qbi5UeYuKTNXiIsDTLwOJMgQ2QHytwXXpsWlnh5w1QQPUdNGG3MRAjtKJBro872a0tggxx01Wy74S68U8F5Rtrbg3mlqUGzQMCBuZvZvvHTW11PuJ6msDs3FSucKXCg5mLhHI_FnBJtAJ-bHCAREdACTPFP9ZeRQ3aLkBO-HaFbIyqMBiREoj3UEOYuw6By9gehktXlXwXyWSfngMJ6vDIPJk3ptusQmX5uxZANyONS7ioGrRawM_ooaKxgLoOTN_hvaMBitQHW_A2s6nfTSL0dsMG5sLux4Vbg4B2k7Pss52nKOjToYps8dPISFkvjtkRAHBsHrwixtbr2J6iREr0Rvc5WQN7uPaLxEpvLNVgFnIYQgL-fzctJ4cndcCyw-9DFZ-wWECQkfmLv2W7MkMiyuqomsl2XpqWIHiCjPbord7cuNmV9SAK2IFEgO4IlA3Ku9XbjpF5nZsFIbVNOQKRrzm0EAzY2adac5A8v3VCukDXvnDkgwrclQ25_WVSWuuIYlkAolU5Vv7KcnornXJnustUAgECFQ5myWElf8P-4gND-M2pT3y7mJgeiJiqpz1hGz6QDMXgrGwGjlpLPrvVi1INRyjx7IA1aIjMBEUB6-EYIdHCvGVMzTewtRxhqijthpvkoJ-U4aMprBuuOacEyeJjF5o8tdwyJZHPcTFKkpn3gN3d-7Cy1xHT1N6Rp2NhbJijNygucyENaXTaluHs5oQjUpZVsJ-xpkctZcOlHRMxMJPSrzEkbV06sjYxnrLpbjdvipjreRXRqPt3lOBNBFqI5fhrQg_n8n5liBnATm56SIiT4RZYzHERdVU3Ry1]--></g></svg>